<svg width="93" height="37" viewBox="0 0 93 37" fill="none" xmlns="http://www.w3.org/2000/svg">
<path d="M6.12891 0.0351562H12.7695C14.7747 0.0351562 16.3112 0.5625 17.3789 1.61719C18.4596 2.67188 18.9935 4.28646 18.9805 6.46094C18.9674 8.63542 18.4531 10.3802 17.4375 11.6953C16.4349 12.9974 15.4258 13.8568 14.4102 14.2734C16.168 15.2891 16.806 17.1836 16.3242 19.957C15.8424 22.7305 14.7357 24.931 13.0039 26.5586C11.2721 28.1862 8.8763 29 5.81641 29H1.61719C1.29167 29 1.05729 28.8828 0.914062 28.6484C0.757812 28.401 0.72526 28.1081 0.816406 27.7695L7.16406 2.80859H6.16797C5.81641 2.80859 5.50391 2.70443 5.23047 2.49609C4.97005 2.27474 4.88542 2.02734 4.97656 1.75391L5.21094 0.835938C5.26302 0.627604 5.38672 0.445312 5.58203 0.289062C5.79036 0.119792 5.97266 0.0351562 6.12891 0.0351562ZM7.20312 15.4844L4.44922 26.2852L6.96875 26.168C8.32292 26.1029 9.59245 25.5234 10.7773 24.4297C11.9753 23.3229 12.7565 21.8516 13.1211 20.0156C13.4987 18.1667 13.2643 16.8971 12.418 16.207C12.0924 15.9076 11.5977 15.7122 10.9336 15.6211C10.2695 15.5299 9.02604 15.4844 7.20312 15.4844ZM10.4062 2.80859L7.92578 12.6328L11.168 12.7109C12.418 12.75 13.3945 12.2617 14.0977 11.2461C14.8138 10.2305 15.2826 9.05208 15.5039 7.71094C15.7383 6.35677 15.6276 5.20443 15.1719 4.25391C14.7161 3.29036 13.9154 2.80859 12.7695 2.80859H10.4062ZM21.8906 23.4727C21.526 25.4258 21.8906 26.5065 22.9844 26.7148C23.9609 26.3503 25.1719 25.3542 26.6172 23.7266C26.8646 23.5052 27.1315 23.4792 27.418 23.6484L28.1797 24.1172C28.5312 24.3906 28.6484 24.6836 28.5312 24.9961C28.0234 25.9596 27.0859 26.9818 25.7188 28.0625C24.3516 29.1432 23.2513 29.6055 22.418 29.4492C20.5299 28.9674 19.4232 27.9779 19.0977 26.4805C18.7201 24.4753 19.0521 21.7214 20.0938 18.2188C21.1354 14.7161 22.5872 12.0729 24.4492 10.2891C25.1003 9.6901 25.9076 9.2474 26.8711 8.96094C27.8477 8.66146 28.8763 8.73958 29.957 9.19531C31.0378 9.65104 31.5716 10.9531 31.5586 13.1016C31.5456 15.25 30.6016 17.2812 28.7266 19.1953C26.8646 21.0964 24.5859 22.5221 21.8906 23.4727ZM22.3789 20.875C23.6289 20.3411 24.6966 19.7161 25.582 19C26.4805 18.2839 27.2161 17.4115 27.7891 16.3828C28.375 15.3542 28.668 14.2995 28.668 13.2188C28.668 12.138 28.3555 11.5977 27.7305 11.5977C26.5065 11.5977 25.4323 12.6003 24.5078 14.6055C23.5964 16.5977 22.8867 18.6875 22.3789 20.875ZM39.3125 8.43359H39.918C40.8294 8.43359 41.6693 8.78516 42.4375 9.48828C43.2057 10.1784 43.8307 11.0312 44.3125 12.0469C44.5859 12.6068 44.4948 13.0299 44.0391 13.3164L42.8281 14C42.2682 14.4036 41.8711 14.3385 41.6367 13.8047C41.6107 13.7526 41.5 13.5052 41.3047 13.0625C41.1224 12.6198 40.9727 12.3073 40.8555 12.125C40.7383 11.9297 40.5299 11.7148 40.2305 11.4805C39.944 11.2461 39.612 11.0964 39.2344 11.0312C38.5703 11.1745 37.9453 11.6172 37.3594 12.3594C36.7734 13.1016 36.4805 14.1562 36.4805 15.5234C36.4805 16.1094 36.6172 16.5195 36.8906 16.7539C37.1771 16.9753 37.6784 17.1641 38.3945 17.3203L39.5078 17.5547C41.1354 17.9062 41.9492 19.2539 41.9492 21.5977C41.9492 22.9909 41.4284 24.5924 40.3867 26.4023C39.8919 27.2487 39.2148 27.9714 38.3555 28.5703C37.4961 29.1562 36.5651 29.4492 35.5625 29.4492H35.2695C34.2539 29.4492 33.349 29.0977 32.5547 28.3945C31.7604 27.6784 31.2005 26.9557 30.875 26.2266C30.5495 25.4844 30.5495 24.931 30.875 24.5664L31.7539 23.8438C32.0273 23.5703 32.3203 23.4466 32.6328 23.4727C32.9583 23.4987 33.1797 23.7331 33.2969 24.1758C33.4141 24.6185 33.7396 25.1523 34.2734 25.7773C34.8073 26.4023 35.3021 26.7279 35.7578 26.7539C36.5521 26.6237 37.2422 26.1549 37.8281 25.3477C38.4141 24.5273 38.707 23.5898 38.707 22.5352C38.707 21.4805 38.6094 20.8099 38.4141 20.5234C38.2188 20.224 37.7695 19.9961 37.0664 19.8398L36.1875 19.6445C35.1589 19.3971 34.4297 18.9674 34 18.3555C33.5703 17.7435 33.3555 16.9167 33.3555 15.875C33.3555 14.1432 33.974 12.4701 35.2109 10.8555C36.4479 9.24089 37.8151 8.43359 39.3125 8.43359ZM58.6289 8.6875H60.1523C60.3216 8.6875 60.4583 8.79167 60.5625 9C60.6667 9.20833 60.6797 9.44922 60.6016 9.72266L54.7227 30.9922C54.0846 33.4531 53.0299 35.0807 51.5586 35.875C50.9206 36.2266 50.4909 36.4414 50.2695 36.5195C49.7357 36.7539 48.9544 36.5521 47.9258 35.9141L43.8438 33.6094C43.4922 33.4401 43.3034 33.1992 43.2773 32.8867C43.2513 32.5872 43.3294 32.3464 43.5117 32.1641L44.1172 31.3242C44.5469 30.8685 44.9896 30.7578 45.4453 30.9922L49.8789 33.7266C50.4648 34.0391 50.9076 33.6745 51.207 32.6328L55.0742 18.9219L54.1562 20.6797L51.793 24.6445C50.9466 26.1029 50.0807 27.1966 49.1953 27.9258C48.3229 28.6419 47.5482 29 46.8711 29H46.6367C46.0768 29 45.6081 28.7982 45.2305 28.3945C44.306 27.3789 44.0977 25.9531 44.6055 24.1172L48.6875 9.23438C48.7917 8.86979 49 8.6875 49.3125 8.6875H51.4023C51.806 8.6875 51.9102 9.00651 51.7148 9.64453L47.6719 23.5117C47.4635 24.3451 47.4375 24.8659 47.5938 25.0742C47.8932 25.5299 48.5703 24.9701 49.625 23.3945C50.6797 21.819 53.362 17.099 57.6719 9.23438C57.8932 8.86979 58.2122 8.6875 58.6289 8.6875ZM65.2891 19.918L69.4492 13.043C70.3346 11.5977 71.2396 10.5104 72.1641 9.78125C73.1016 9.05208 73.9023 8.6875 74.5664 8.6875H75.4062C75.8359 8.6875 76.168 8.75911 76.4023 8.90234C76.6497 9.04557 76.8451 9.37109 76.9883 9.87891C77.1445 10.3867 77.0729 11.1354 76.7734 12.125L72.3008 28.4336C72.2227 28.8112 72.0078 29 71.6562 29H69.5664C69.1758 29 69.0716 28.681 69.2539 28.043L73.4531 14.3125C73.6615 13.5964 73.7656 13.1276 73.7656 12.9062C73.7656 12.6719 73.6745 12.5547 73.4922 12.5547C73.3099 12.5547 73.0885 12.6784 72.8281 12.9258C72.5807 13.1602 72.2422 13.5964 71.8125 14.2344C71.3047 14.9635 70.6927 15.9076 69.9766 17.0664C69.2604 18.2253 68.3555 19.6576 67.2617 21.3633C65.2044 24.5013 63.7461 26.8581 62.8867 28.4336C62.6784 28.8112 62.3594 29 61.9297 29H60.8164C60.6602 29 60.5299 28.8958 60.4258 28.6875C60.3086 28.4661 60.2891 28.2253 60.3672 27.9648L65.2109 9.72266C65.3411 9.03255 65.6081 8.6875 66.0117 8.6875H67.6523C68.2904 8.6875 68.5052 9.07161 68.2969 9.83984L65.2891 19.918ZM86.4023 8.76562C87.2878 8.76562 88.1406 9.01953 88.9609 9.52734C89.1172 8.99349 89.3971 8.72656 89.8008 8.72656L91.168 8.6875C91.832 8.66146 92.099 9.00651 91.9688 9.72266C91.3568 12.1706 89.3971 19.2604 86.0898 30.9922C85.3997 33.4792 84.3451 35.1068 82.9258 35.875C82.1836 36.3307 81.6042 36.5716 81.1875 36.5977C80.7708 36.6237 80.1393 36.3958 79.293 35.9141L75.2109 33.6094C74.5729 33.2839 74.4622 32.8021 74.8789 32.1641L75.4844 31.3242C75.9141 30.8424 76.3568 30.7318 76.8125 30.9922L81.2461 33.7266C81.8581 33.987 82.3008 33.6224 82.5742 32.6328L84.4883 25.6406C83.9023 26.6302 83.2448 27.457 82.5156 28.1211C81.7995 28.7852 81.2135 29.1172 80.7578 29.1172H80.6797C80.4714 29.1172 80.1393 28.9674 79.6836 28.668C79.2279 28.3555 78.7852 27.9388 78.3555 27.418C77.9388 26.8971 77.6393 26.3438 77.457 25.7578C77.2878 25.1719 77.3203 24.0781 77.5547 22.4766C77.8021 20.875 78.4076 18.7266 79.3711 16.0312C80.3477 13.3229 81.3633 11.4349 82.418 10.3672C83.4727 9.29948 84.8008 8.76562 86.4023 8.76562ZM88.3164 11.7148C86.9883 10.9727 85.875 10.9206 84.9766 11.5586C84.0911 12.1966 83.1992 13.7266 82.3008 16.1484C81.4154 18.5573 80.8424 20.4453 80.582 21.8125C80.3346 23.1667 80.2305 24.0846 80.2695 24.5664C80.3086 25.0482 80.543 25.3997 80.9727 25.6211C81.4154 25.8424 82.151 25.3672 83.1797 24.1953C84.2083 23.0234 85.0807 21.5065 85.7969 19.6445C86.526 17.7695 87.3268 15.25 88.1992 12.0859L88.3164 11.7148Z" fill="white"/>
</svg>
