<svg width="573" height="162" viewBox="0 0 573 162" fill="none" xmlns="http://www.w3.org/2000/svg">
<path d="M57.96 53.32L56.0804 54.0035L56.0838 54.0129L56.0873 54.0222L57.96 53.32ZM51.12 45.16L50.408 47.029L50.4324 47.0383L50.457 47.0469L51.12 45.16ZM38.76 45.16L38.0765 43.2804L38.0622 43.2856L38.048 43.291L38.76 45.16ZM34.56 48.52L32.9215 47.3731L32.9215 47.3731L34.56 48.52ZM31.8 53.56L29.9489 52.8027L29.9339 52.8393L29.9204 52.8765L31.8 53.56ZM30.24 61L28.2554 60.7519L28.2528 60.773L28.2506 60.7942L30.24 61ZM30.6 111.04L28.6293 111.381L28.6331 111.403L28.6374 111.425L30.6 111.04ZM33.48 119.8L35.1702 118.731L35.1673 118.726L33.48 119.8ZM57.24 117.76L55.3572 117.086L55.3542 117.094L55.3514 117.102L57.24 117.76ZM14.76 117.4L13.2742 118.739L13.2819 118.747L13.2898 118.756L14.76 117.4ZM15.48 53.56L13.9927 52.2229L13.9919 52.2237L15.48 53.56ZM74.88 52.96L73.3729 54.2747L73.3803 54.2833L73.3878 54.2917L74.88 52.96ZM74.76 116.8L73.2617 115.475L73.2539 115.484L74.76 116.8ZM62.12 89.92V81.04H58.12V89.92H62.12ZM62.12 81.04C62.12 73.6941 61.9396 67.667 61.574 62.9746C61.213 58.3424 60.6602 54.8245 59.8327 52.6177L56.0873 54.0222C56.6998 55.6555 57.227 58.6776 57.586 63.2854C57.9404 67.833 58.12 73.7459 58.12 81.04H62.12ZM59.8396 52.6365C58.1379 47.9569 55.5419 44.5938 51.783 43.2731L50.457 47.0469C52.6181 47.8062 54.5821 49.8831 56.0804 54.0035L59.8396 52.6365ZM51.832 43.291C49.8625 42.5407 47.5666 42.2 45 42.2V46.2C47.2334 46.2 49.0175 46.4992 50.408 47.029L51.832 43.291ZM45 42.2C42.4294 42.2 40.1075 42.5419 38.0765 43.2804L39.4435 47.0396C40.9325 46.4981 42.7706 46.2 45 46.2V42.2ZM38.048 43.291C35.9614 44.0859 34.2504 45.4747 32.9215 47.3731L36.1985 49.6669C37.1096 48.3652 38.1986 47.5141 39.472 47.029L38.048 43.291ZM32.9215 47.3731C31.7187 49.0914 30.7266 50.9017 29.9489 52.8027L33.6511 54.3173C34.3134 52.6983 35.1613 51.1486 36.1985 49.6669L32.9215 47.3731ZM29.9204 52.8765C29.2055 54.8426 28.6628 57.4934 28.2554 60.7519L32.2246 61.2481C32.6172 58.1066 33.1145 55.7974 33.6796 54.2435L29.9204 52.8765ZM28.2506 60.7942C27.7597 65.5393 27.52 72.4623 27.52 81.52H31.52C31.52 72.4977 31.7603 65.7407 32.2294 61.2058L28.2506 60.7942ZM27.52 81.52V90.16H31.52V81.52H27.52ZM27.52 90.16C27.52 99.9253 27.8774 107.037 28.6293 111.381L32.5707 110.699C31.8826 106.723 31.52 99.9147 31.52 90.16H27.52ZM28.6374 111.425C29.4473 115.556 30.4628 118.784 31.7927 120.874L35.1673 118.726C34.2572 117.296 33.3527 114.684 32.5626 110.655L28.6374 111.425ZM31.7898 120.869C34.6861 125.447 39.2127 127.68 45 127.68V123.68C40.3874 123.68 37.2339 121.993 35.1702 118.731L31.7898 120.869ZM45 127.68C48.4313 127.68 51.4387 126.963 53.8865 125.379C56.3548 123.782 58.0853 121.412 59.1286 118.418L55.3514 117.102C54.5547 119.388 53.3252 120.978 51.7135 122.021C50.0813 123.077 47.8887 123.68 45 123.68V127.68ZM59.1229 118.434C61.1707 112.717 62.12 103.127 62.12 89.92H58.12C58.12 103.113 57.1493 112.083 55.3572 117.086L59.1229 118.434ZM44.76 126.2C31.7475 126.2 22.369 122.701 16.2302 116.044L13.2898 118.756C20.431 126.499 31.0525 130.2 44.76 130.2V126.2ZM16.2458 116.061C10.1279 109.272 6.92 99.3414 6.92 85.96H2.92C2.92 99.9386 6.27206 110.968 13.2742 118.739L16.2458 116.061ZM6.92 85.96C6.92 72.5388 10.3481 62.2685 16.9681 54.8962L13.9919 52.2237C6.5319 60.5315 2.92 71.8612 2.92 85.96H6.92ZM16.9673 54.8971C23.6271 47.489 33.0739 43.68 45.6 43.68V39.68C32.2061 39.68 21.5729 43.791 13.9927 52.2229L16.9673 54.8971ZM45.6 43.68C58.1662 43.68 67.2989 47.3119 73.3729 54.2747L76.3871 51.6453C69.3411 43.5681 58.9538 39.68 45.6 39.68V43.68ZM73.3878 54.2917C79.5945 61.2462 82.84 71.304 82.84 84.76H86.84C86.84 70.696 83.4455 59.5538 76.3722 51.6283L73.3878 54.2917ZM82.84 84.76C82.84 98.2073 79.5586 108.354 73.2617 115.475L76.2583 118.125C83.4014 110.046 86.84 98.8327 86.84 84.76H82.84ZM73.2539 115.484C67.1069 122.52 57.7406 126.2 44.76 126.2V130.2C58.4994 130.2 69.1331 126.28 76.2661 118.116L73.2539 115.484ZM159.994 127V129H161.994V127H159.994ZM132.634 127L130.656 127.298L130.913 129H132.634V127ZM131.314 118.24L133.291 117.942L132.193 110.656L129.457 117.497L131.314 118.24ZM125.554 125.68L126.675 127.336L126.687 127.328L125.554 125.68ZM95.7938 72.04H97.7938V70.04H95.7938V72.04ZM89.0738 72.04H87.0738V74.04H89.0738V72.04ZM89.0738 69.88V67.88H87.0738V69.88H89.0738ZM118.114 69.88H120.114V67.88H118.114V69.88ZM119.074 120.52L117.23 121.296L117.247 121.337L117.266 121.376L119.074 120.52ZM128.674 119.08L130.354 120.164L130.354 120.164L128.674 119.08ZM131.074 72.04H133.074V70.04H131.074V72.04ZM125.554 72.04H123.554V74.04H125.554V72.04ZM125.554 69.88V67.88H123.554V69.88H125.554ZM153.394 69.88H155.394V67.88H153.394V69.88ZM153.394 124.84H151.394V126.84H153.394V124.84ZM159.994 124.84H161.994V122.84H159.994V124.84ZM159.994 125H132.634V129H159.994V125ZM134.611 126.702L133.291 117.942L129.336 118.538L130.656 127.298L134.611 126.702ZM129.457 117.497C128.307 120.372 126.62 122.52 124.421 124.032L126.687 127.328C129.607 125.32 131.761 122.508 133.171 118.983L129.457 117.497ZM124.432 124.024C122.436 125.376 119.191 126.2 114.394 126.2V130.2C119.517 130.2 123.711 129.344 126.675 127.336L124.432 124.024ZM114.394 126.2C108.542 126.2 104.51 124.631 101.91 121.829C99.2835 119 97.7938 114.567 97.7938 108.16H93.7938C93.7938 115.113 95.404 120.7 98.9779 124.551C102.578 128.429 107.846 130.2 114.394 130.2V126.2ZM97.7938 108.16V72.04H93.7938V108.16H97.7938ZM95.7938 70.04H89.0738V74.04H95.7938V70.04ZM91.0738 72.04V69.88H87.0738V72.04H91.0738ZM89.0738 71.88H118.114V67.88H89.0738V71.88ZM116.114 69.88V111.04H120.114V69.88H116.114ZM116.114 111.04C116.114 113.477 116.195 115.54 116.364 117.212C116.529 118.842 116.792 120.254 117.23 121.296L120.917 119.744C120.716 119.266 120.498 118.338 120.344 116.808C120.193 115.32 120.114 113.403 120.114 111.04H116.114ZM117.266 121.376C117.789 122.48 118.586 123.377 119.658 123.976C120.709 124.563 121.907 124.8 123.154 124.8V120.8C122.401 120.8 121.918 120.657 121.609 120.484C121.322 120.323 121.078 120.08 120.881 119.664L117.266 121.376ZM123.154 124.8C126.174 124.8 128.554 122.955 130.354 120.164L126.993 117.996C125.593 120.165 124.294 120.8 123.154 120.8V124.8ZM130.354 120.164C132.242 117.239 133.074 113.368 133.074 108.76H129.074C129.074 112.952 128.306 115.961 126.993 117.996L130.354 120.164ZM133.074 108.76V72.04H129.074V108.76H133.074ZM131.074 70.04H125.554V74.04H131.074V70.04ZM127.554 72.04V69.88H123.554V72.04H127.554ZM125.554 71.88H153.394V67.88H125.554V71.88ZM151.394 69.88V124.84H155.394V69.88H151.394ZM153.394 126.84H159.994V122.84H153.394V126.84ZM157.994 124.84V127H161.994V124.84H157.994ZM194.73 79L196.458 80.0077L196.458 80.0077L194.73 79ZM191.37 124.84H189.37V126.84H191.37V124.84ZM199.89 124.84H201.89V122.84H199.89V124.84ZM199.89 127V129H201.89V127H199.89ZM162.45 127H160.45V129H162.45V127ZM162.45 124.84V122.84H160.45V124.84H162.45ZM169.05 124.84V126.84H171.05V124.84H169.05ZM169.05 72.04H171.05V70.04H169.05V72.04ZM162.45 72.04H160.45V74.04H162.45V72.04ZM162.45 69.88V67.88H160.45V69.88H162.45ZM191.37 69.88H193.37V67.88H191.37V69.88ZM191.37 81.4H189.37L193.308 81.894L191.37 81.4ZM197.37 72.04L198.549 73.6556L198.563 73.6453L198.577 73.6348L197.37 72.04ZM216.57 71.92L215.207 73.3838L215.233 73.4081L215.26 73.4314L216.57 71.92ZM217.53 89.8L216.003 88.5081L216.003 88.5081L217.53 89.8ZM201.33 89.32L199.692 90.4669L199.704 90.485L199.717 90.5027L201.33 89.32ZM200.73 79.36V77.36H199.245L198.815 78.782L200.73 79.36ZM205.05 79.36V81.36H206.297L206.846 80.2403L205.05 79.36ZM202.53 71.24C198.542 71.24 195.406 73.8723 193.002 77.9923L196.458 80.0077C198.534 76.4477 200.598 75.24 202.53 75.24V71.24ZM193.002 77.9923C190.553 82.1911 189.37 87.1127 189.37 92.68H193.37C193.37 87.6873 194.427 83.4889 196.458 80.0077L193.002 77.9923ZM189.37 92.68V124.84H193.37V92.68H189.37ZM191.37 126.84H199.89V122.84H191.37V126.84ZM197.89 124.84V127H201.89V124.84H197.89ZM199.89 125H162.45V129H199.89V125ZM164.45 127V124.84H160.45V127H164.45ZM162.45 126.84H169.05V122.84H162.45V126.84ZM171.05 124.84V72.04H167.05V124.84H171.05ZM169.05 70.04H162.45V74.04H169.05V70.04ZM164.45 72.04V69.88H160.45V72.04H164.45ZM162.45 71.88H191.37V67.88H162.45V71.88ZM189.37 69.88V81.4H193.37V69.88H189.37ZM193.308 81.894C194.251 78.1939 196.02 75.5011 198.549 73.6556L196.191 70.4244C192.8 72.8989 190.569 76.4461 189.432 80.906L193.308 81.894ZM198.577 73.6348C201.185 71.6614 204.12 70.68 207.45 70.68V66.68C203.26 66.68 199.475 67.9386 196.163 70.4452L198.577 73.6348ZM207.45 70.68C210.804 70.68 213.325 71.631 215.207 73.3838L217.933 70.4562C215.175 67.889 211.616 66.68 207.45 66.68V70.68ZM215.26 73.4314C217.121 75.0445 218.17 77.4325 218.17 80.92H222.17C222.17 76.5675 220.819 72.9555 217.88 70.4086L215.26 73.4314ZM218.17 80.92C218.17 84.4783 217.353 86.9125 216.003 88.5081L219.057 91.0919C221.227 88.5275 222.17 85.0417 222.17 80.92H218.17ZM216.003 88.5081C214.745 89.9957 212.68 90.92 209.37 90.92V94.92C213.42 94.92 216.795 93.7643 219.057 91.0919L216.003 88.5081ZM209.37 90.92C206.257 90.92 204.245 89.9133 202.943 88.1373L199.717 90.5027C201.935 93.5267 205.283 94.92 209.37 94.92V90.92ZM202.968 88.1731C201.79 86.4901 201.449 83.8988 202.645 79.938L198.815 78.782C197.451 83.3012 197.51 87.3499 199.692 90.4669L202.968 88.1731ZM200.73 81.36H205.05V77.36H200.73V81.36ZM206.846 80.2403C207.392 79.1259 207.793 78.0565 207.983 77.055C208.171 76.0591 208.176 74.9965 207.769 74.0085C206.864 71.8093 204.584 71.24 202.53 71.24V75.24C203.292 75.24 203.722 75.3496 203.935 75.4454C204.031 75.4887 204.064 75.5208 204.067 75.524C204.067 75.5242 204.066 75.5214 204.071 75.5315C204.084 75.5635 204.154 75.7759 204.052 76.31C203.952 76.8385 203.708 77.5541 203.254 78.4797L206.846 80.2403Z" fill="white"/>
<path d="M222.8 43H258.08C270.16 43 279.16 44.76 285.08 48.28C291 51.72 293.96 57.92 293.96 66.88C293.96 76.8 290.36 83.64 283.16 87.4C276.44 90.84 267.04 92.56 254.96 92.56H254V124.72H269V127H222.8V124.72H230.6V45.28H222.8V43ZM254 45.28V90.28H256.52C261.32 90.28 264.64 88.64 266.48 85.36C268.32 82.08 269.24 76.76 269.24 69.4V63.64C269.24 56.84 268.36 52.08 266.6 49.36C264.92 46.64 261.8 45.28 257.24 45.28H254ZM338.335 73.24C335.375 73.24 332.775 75.16 330.535 79C328.295 82.84 327.175 87.4 327.175 92.68V124.84H335.695V127H298.255V124.84H304.855V72.04H298.255V69.88H327.175V81.4C328.215 77.32 330.215 74.2 333.175 72.04C336.135 69.8 339.495 68.68 343.255 68.68C347.015 68.68 350.055 69.76 352.375 71.92C354.775 74 355.975 77 355.975 80.92C355.975 84.76 355.095 87.72 353.335 89.8C351.575 91.88 348.855 92.92 345.175 92.92C341.575 92.92 338.895 91.72 337.135 89.32C335.455 86.92 335.255 83.6 336.535 79.36H340.855C342.855 75.28 342.015 73.24 338.335 73.24ZM384.711 98.8H388.191V89.56C388.191 81.96 387.751 76.88 386.871 74.32C386.071 71.68 384.471 70.36 382.071 70.36C380.631 70.36 379.311 70.76 378.111 71.56C376.991 72.28 376.431 73.32 376.431 74.68C376.431 75.96 376.671 77.28 377.151 78.64H380.151C380.791 80.32 381.111 82.36 381.111 84.76C381.111 87.08 380.111 89.12 378.111 90.88C376.111 92.56 373.591 93.4 370.551 93.4C363.671 93.4 360.231 90.08 360.231 83.44C360.231 73.6 368.591 68.68 385.311 68.68C394.831 68.68 401.391 70.32 404.991 73.6C408.671 76.8 410.511 82.72 410.511 91.36V115.72C410.511 119.88 411.671 121.96 413.991 121.96C416.711 121.96 418.311 117.84 418.791 109.6L420.591 109.72C420.271 116.76 418.951 121.6 416.631 124.24C414.311 126.88 410.511 128.2 405.231 128.2C395.631 128.2 390.111 125.24 388.671 119.32C387.631 122.36 386.071 124.6 383.991 126.04C381.911 127.48 378.871 128.2 374.871 128.2C363.031 128.2 357.111 123.36 357.111 113.68C357.111 108 359.351 104.12 363.831 102.04C368.391 99.88 375.351 98.8 384.711 98.8ZM379.911 113.56C379.911 117.72 380.111 120.4 380.511 121.6C380.991 122.8 381.831 123.4 383.031 123.4C384.311 123.4 385.471 122.4 386.511 120.4C387.631 118.32 388.191 115.48 388.191 111.88V100.72H387.351C382.391 100.72 379.911 104.36 379.911 111.64V113.56ZM439.41 61.6C435.17 61.6 432.13 60.52 430.29 58.36C428.53 56.2 427.65 53.52 427.65 50.32C427.65 47.12 428.61 44.48 430.53 42.4C432.53 40.32 435.53 39.28 439.53 39.28C443.53 39.28 446.57 40.24 448.65 42.16C450.73 44 451.77 46.68 451.77 50.2C451.77 53.64 450.77 56.4 448.77 58.48C446.77 60.56 443.65 61.6 439.41 61.6ZM421.29 69.88H450.69V124.84H457.41V127H421.77V124.84H428.37V72.04H421.29V69.88ZM462.616 128.2V106.72H464.056C466.136 113.68 468.936 118.56 472.456 121.36C475.976 124.16 480.376 125.56 485.656 125.56C493.816 125.56 497.896 122.96 497.896 117.76C497.896 115.52 496.896 113.84 494.896 112.72C491.776 110.96 487.776 109.6 482.896 108.64C477.456 107.2 472.896 105.28 469.216 102.88C464.816 100 462.616 95.44 462.616 89.2C462.616 82.96 464.536 78 468.376 74.32C472.216 70.56 477.336 68.68 483.736 68.68C487.656 68.68 491.696 69.6 495.856 71.44C497.376 72.08 498.536 72.4 499.336 72.4C500.136 72.4 500.816 72.12 501.376 71.56C501.936 71 502.616 69.96 503.416 68.44H504.736V86.8H503.296C499.216 76.4 492.896 71.2 484.336 71.2C480.576 71.2 477.776 71.88 475.936 73.24C474.096 74.52 473.176 76.16 473.176 78.16C473.176 79.36 473.456 80.32 474.016 81.04C474.576 81.68 475.016 82.16 475.336 82.48C475.656 82.8 476.176 83.16 476.896 83.56C477.616 83.88 478.216 84.16 478.696 84.4C479.176 84.56 479.896 84.8 480.856 85.12C481.896 85.44 482.656 85.64 483.136 85.72C488.576 87.08 492.496 88.28 494.896 89.32C497.296 90.28 499.576 91.48 501.736 92.92C506.136 95.96 508.336 100.88 508.336 107.68C508.336 114.4 506.336 119.52 502.336 123.04C498.336 126.48 492.856 128.2 485.896 128.2C480.936 128.2 476.136 127.04 471.496 124.72C470.536 124.08 469.776 123.76 469.216 123.76C467.456 123.76 465.736 125.24 464.056 128.2H462.616ZM543.448 128.2C533.128 128.2 525.368 125.56 520.168 120.28C515.048 114.92 512.488 107.52 512.488 98.08C512.488 88.56 515.368 81.28 521.128 76.24C526.968 71.2 534.368 68.68 543.328 68.68C561.488 68.68 570.208 77.8 569.488 96.04H535.648V100.72C535.648 108.56 536.648 114.48 538.648 118.48C540.648 122.48 544.128 124.48 549.088 124.48C558.368 124.48 564.448 119.52 567.328 109.6L569.488 109.96C567.968 115.72 565.208 120.2 561.208 123.4C557.288 126.6 551.368 128.2 543.448 128.2ZM535.768 93.64H548.128V87.76C548.128 81.28 547.728 76.88 546.928 74.56C546.208 72.16 544.688 70.96 542.367 70.96C540.128 70.96 538.448 72.24 537.328 74.8C536.288 77.28 535.768 81.6 535.768 87.76V93.64Z" fill="white"/>
<path d="M222.8 43V41H220.8V43H222.8ZM285.08 48.28L284.058 49.9991L284.066 50.0042L284.075 50.0092L285.08 48.28ZM283.16 87.4L284.071 89.1803L284.079 89.1766L284.086 89.1728L283.16 87.4ZM254 92.56V90.56H252V92.56H254ZM254 124.72H252V126.72H254V124.72ZM269 124.72H271V122.72H269V124.72ZM269 127V129H271V127H269ZM222.8 127H220.8V129H222.8V127ZM222.8 124.72V122.72H220.8V124.72H222.8ZM230.6 124.72V126.72H232.6V124.72H230.6ZM230.6 45.28H232.6V43.28H230.6V45.28ZM222.8 45.28H220.8V47.28H222.8V45.28ZM254 45.28V43.28H252V45.28H254ZM254 90.28H252V92.28H254V90.28ZM266.48 85.36L268.224 86.3385L268.224 86.3385L266.48 85.36ZM266.6 49.36L264.898 50.411L264.909 50.4289L264.921 50.4465L266.6 49.36ZM222.8 45H258.08V41H222.8V45ZM258.08 45C270.036 45 278.601 46.7545 284.058 49.9991L286.102 46.5609C279.719 42.7655 270.284 41 258.08 41V45ZM284.075 50.0092C289.189 52.9806 291.96 58.3808 291.96 66.88H295.96C295.96 57.4592 292.811 50.4594 286.085 46.5507L284.075 50.0092ZM291.96 66.88C291.96 76.2523 288.616 82.2946 282.234 85.6272L284.086 89.1728C292.104 84.9854 295.96 77.3477 295.96 66.88H291.96ZM282.249 85.6197C275.931 88.8539 266.893 90.56 254.96 90.56V94.56C267.187 94.56 276.949 92.8261 284.071 89.1803L282.249 85.6197ZM254.96 90.56H254V94.56H254.96V90.56ZM252 92.56V124.72H256V92.56H252ZM254 126.72H269V122.72H254V126.72ZM267 124.72V127H271V124.72H267ZM269 125H222.8V129H269V125ZM224.8 127V124.72H220.8V127H224.8ZM222.8 126.72H230.6V122.72H222.8V126.72ZM232.6 124.72V45.28H228.6V124.72H232.6ZM230.6 43.28H222.8V47.28H230.6V43.28ZM224.8 45.28V43H220.8V45.28H224.8ZM252 45.28V90.28H256V45.28H252ZM254 92.28H256.52V88.28H254V92.28ZM256.52 92.28C261.811 92.28 265.93 90.4289 268.224 86.3385L264.736 84.3815C263.35 86.8511 260.829 88.28 256.52 88.28V92.28ZM268.224 86.3385C270.327 82.5898 271.24 76.8329 271.24 69.4H267.24C267.24 76.6871 266.313 81.5702 264.736 84.3815L268.224 86.3385ZM271.24 69.4V63.64H267.24V69.4H271.24ZM271.24 63.64C271.24 56.7953 270.378 51.5173 268.279 48.2735L264.921 50.4465C266.342 52.6427 267.24 56.8847 267.24 63.64H271.24ZM268.302 48.309C266.114 44.7679 262.169 43.28 257.24 43.28V47.28C261.431 47.28 263.726 48.512 264.898 50.411L268.302 48.309ZM257.24 43.28H254V47.28H257.24V43.28ZM330.535 79L332.262 80.0077L332.262 80.0077L330.535 79ZM327.175 124.84H325.175V126.84H327.175V124.84ZM335.695 124.84H337.695V122.84H335.695V124.84ZM335.695 127V129H337.695V127H335.695ZM298.255 127H296.255V129H298.255V127ZM298.255 124.84V122.84H296.255V124.84H298.255ZM304.855 124.84V126.84H306.855V124.84H304.855ZM304.855 72.04H306.855V70.04H304.855V72.04ZM298.255 72.04H296.255V74.04H298.255V72.04ZM298.255 69.88V67.88H296.255V69.88H298.255ZM327.175 69.88H329.175V67.88H327.175V69.88ZM327.175 81.4H325.175L329.113 81.894L327.175 81.4ZM333.175 72.04L334.354 73.6556L334.368 73.6453L334.382 73.6348L333.175 72.04ZM352.375 71.92L351.012 73.3838L351.038 73.4081L351.065 73.4314L352.375 71.92ZM353.335 89.8L351.808 88.5081L351.808 88.5081L353.335 89.8ZM337.135 89.32L335.496 90.4669L335.509 90.485L335.522 90.5027L337.135 89.32ZM336.535 79.36V77.36H335.049L334.62 78.782L336.535 79.36ZM340.855 79.36V81.36H342.102L342.651 80.2403L340.855 79.36ZM338.335 71.24C334.347 71.24 331.21 73.8723 328.807 77.9923L332.262 80.0077C334.339 76.4477 336.403 75.24 338.335 75.24V71.24ZM328.807 77.9923C326.358 82.1911 325.175 87.1127 325.175 92.68H329.175C329.175 87.6873 330.232 83.4889 332.262 80.0077L328.807 77.9923ZM325.175 92.68V124.84H329.175V92.68H325.175ZM327.175 126.84H335.695V122.84H327.175V126.84ZM333.695 124.84V127H337.695V124.84H333.695ZM335.695 125H298.255V129H335.695V125ZM300.255 127V124.84H296.255V127H300.255ZM298.255 126.84H304.855V122.84H298.255V126.84ZM306.855 124.84V72.04H302.855V124.84H306.855ZM304.855 70.04H298.255V74.04H304.855V70.04ZM300.255 72.04V69.88H296.255V72.04H300.255ZM298.255 71.88H327.175V67.88H298.255V71.88ZM325.175 69.88V81.4H329.175V69.88H325.175ZM329.113 81.894C330.056 78.1939 331.825 75.5011 334.354 73.6556L331.996 70.4244C328.605 72.8989 326.373 76.4461 325.237 80.906L329.113 81.894ZM334.382 73.6348C336.989 71.6614 339.924 70.68 343.255 70.68V66.68C339.065 66.68 335.28 67.9386 331.968 70.4452L334.382 73.6348ZM343.255 70.68C346.609 70.68 349.129 71.631 351.012 73.3838L353.738 70.4562C350.98 67.889 347.42 66.68 343.255 66.68V70.68ZM351.065 73.4314C352.926 75.0445 353.975 77.4325 353.975 80.92H357.975C357.975 76.5675 356.623 72.9555 353.685 70.4086L351.065 73.4314ZM353.975 80.92C353.975 84.4783 353.158 86.9125 351.808 88.5081L354.861 91.0919C357.031 88.5275 357.975 85.0417 357.975 80.92H353.975ZM351.808 88.5081C350.549 89.9957 348.484 90.92 345.175 90.92V94.92C349.225 94.92 352.6 93.7643 354.861 91.0919L351.808 88.5081ZM345.175 90.92C342.061 90.92 340.05 89.9133 338.748 88.1373L335.522 90.5027C337.739 93.5267 341.088 94.92 345.175 94.92V90.92ZM338.773 88.1731C337.595 86.4901 337.254 83.8988 338.449 79.938L334.62 78.782C333.256 83.3012 333.314 87.3499 335.496 90.4669L338.773 88.1731ZM336.535 81.36H340.855V77.36H336.535V81.36ZM342.651 80.2403C343.197 79.1259 343.597 78.0565 343.787 77.055C343.976 76.0591 343.981 74.9965 343.574 74.0085C342.669 71.8093 340.388 71.24 338.335 71.24V75.24C339.096 75.24 339.527 75.3496 339.739 75.4454C339.835 75.4887 339.868 75.5208 339.872 75.524C339.872 75.5242 339.871 75.5214 339.875 75.5315C339.888 75.5635 339.958 75.7759 339.857 76.31C339.757 76.8385 339.513 77.5541 339.059 78.4797L342.651 80.2403ZM388.191 98.8V100.8H390.191V98.8H388.191ZM386.871 74.32L384.957 74.9L384.968 74.9353L384.98 74.9702L386.871 74.32ZM378.111 71.56L379.192 73.2424L379.206 73.2333L379.22 73.2241L378.111 71.56ZM377.151 78.64L375.265 79.3056L375.736 80.64H377.151V78.64ZM380.151 78.64L382.02 77.928L381.529 76.64H380.151V78.64ZM378.111 90.88L379.397 92.4114L379.415 92.3966L379.432 92.3814L378.111 90.88ZM404.991 73.6L403.644 75.0784L403.661 75.094L403.679 75.1092L404.991 73.6ZM418.791 109.6L418.924 107.604L416.912 107.47L416.794 109.484L418.791 109.6ZM420.591 109.72L422.589 109.811L422.678 107.855L420.724 107.724L420.591 109.72ZM416.631 124.24L418.133 125.56L418.133 125.56L416.631 124.24ZM388.671 119.32L390.614 118.847L388.996 112.192L386.779 118.673L388.671 119.32ZM383.991 126.04L385.129 127.684L385.129 127.684L383.991 126.04ZM363.831 102.04L364.673 103.854L364.68 103.851L364.687 103.847L363.831 102.04ZM380.511 121.6L378.614 122.232L378.632 122.288L378.654 122.343L380.511 121.6ZM386.511 120.4L384.75 119.452L384.743 119.464L384.737 119.477L386.511 120.4ZM388.191 100.72H390.191V98.72H388.191V100.72ZM384.711 100.8H388.191V96.8H384.711V100.8ZM390.191 98.8V89.56H386.191V98.8H390.191ZM390.191 89.56C390.191 82.0032 389.767 76.5933 388.762 73.6698L384.98 74.9702C385.735 77.1667 386.191 81.9168 386.191 89.56H390.191ZM388.785 73.74C388.308 72.1649 387.533 70.7884 386.344 69.8073C385.13 68.8062 383.659 68.36 382.071 68.36V72.36C382.883 72.36 383.412 72.5738 383.798 72.8927C384.209 73.2316 384.634 73.8351 384.957 74.9L388.785 73.74ZM382.071 68.36C380.235 68.36 378.53 68.8772 377.002 69.8959L379.22 73.2241C380.092 72.6428 381.026 72.36 382.071 72.36V68.36ZM377.029 69.8776C375.322 70.9751 374.431 72.6571 374.431 74.68H378.431C378.431 73.9828 378.66 73.5849 379.192 73.2424L377.029 69.8776ZM374.431 74.68C374.431 76.2135 374.719 77.7586 375.265 79.3056L379.037 77.9744C378.623 76.8014 378.431 75.7065 378.431 74.68H374.431ZM377.151 80.64H380.151V76.64H377.151V80.64ZM378.282 79.352C378.812 80.7425 379.111 82.5266 379.111 84.76H383.111C383.111 82.1934 382.77 79.8975 382.02 77.928L378.282 79.352ZM379.111 84.76C379.111 86.4171 378.429 87.9359 376.79 89.3786L379.432 92.3814C381.793 90.3041 383.111 87.7429 383.111 84.76H379.111ZM376.825 89.3486C375.243 90.6775 373.202 91.4 370.551 91.4V95.4C373.98 95.4 376.979 94.4425 379.397 92.4114L376.825 89.3486ZM370.551 91.4C367.402 91.4 365.41 90.6393 364.2 89.4709C363.002 88.3153 362.231 86.4333 362.231 83.44H358.231C358.231 87.0867 359.179 90.1847 361.422 92.3491C363.651 94.5007 366.82 95.4 370.551 95.4V91.4ZM362.231 83.44C362.231 79.216 363.957 76.1879 367.515 74.0937C371.239 71.9024 377.082 70.68 385.311 70.68V66.68C376.82 66.68 370.123 67.9176 365.487 70.6463C360.685 73.4721 358.231 77.824 358.231 83.44H362.231ZM385.311 70.68C394.745 70.68 400.633 72.3346 403.644 75.0784L406.338 72.1216C402.149 68.3054 394.917 66.68 385.311 66.68V70.68ZM403.679 75.1092C406.682 77.7209 408.511 82.879 408.511 91.36H412.511C412.511 82.561 410.66 75.8791 406.303 72.0908L403.679 75.1092ZM408.511 91.36V115.72H412.511V91.36H408.511ZM408.511 115.72C408.511 117.92 408.806 119.89 409.634 121.374C410.065 122.147 410.657 122.817 411.442 123.287C412.23 123.758 413.103 123.96 413.991 123.96V119.96C413.719 119.96 413.577 119.902 413.495 119.853C413.41 119.803 413.277 119.693 413.128 119.426C412.796 118.83 412.511 117.68 412.511 115.72H408.511ZM413.991 123.96C416.634 123.96 418.207 121.882 419.095 119.594C420.01 117.238 420.544 113.897 420.788 109.716L416.794 109.484C416.558 113.543 416.052 116.382 415.367 118.146C414.655 119.978 414.068 119.96 413.991 119.96V123.96ZM418.658 111.596L420.458 111.716L420.724 107.724L418.924 107.604L418.658 111.596ZM418.593 109.629C418.276 116.599 416.967 120.828 415.129 122.92L418.133 125.56C420.935 122.372 422.266 116.921 422.589 109.811L418.593 109.629ZM415.129 122.92C413.346 124.949 410.227 126.2 405.231 126.2V130.2C410.795 130.2 415.276 128.811 418.133 125.56L415.129 122.92ZM405.231 126.2C400.6 126.2 397.191 125.48 394.836 124.217C392.561 122.997 391.196 121.238 390.614 118.847L386.728 119.793C387.586 123.322 389.701 126.003 392.946 127.743C396.111 129.44 400.261 130.2 405.231 130.2V126.2ZM386.779 118.673C385.839 121.418 384.496 123.258 382.853 124.396L385.129 127.684C387.646 125.942 389.423 123.302 390.563 119.967L386.779 118.673ZM382.853 124.396C381.25 125.505 378.682 126.2 374.871 126.2V130.2C379.06 130.2 382.572 129.455 385.129 127.684L382.853 124.396ZM374.871 126.2C369.172 126.2 365.27 125.027 362.817 123.022C360.441 121.079 359.111 118.093 359.111 113.68H355.111C355.111 118.947 356.741 123.221 360.285 126.118C363.752 128.953 368.73 130.2 374.871 130.2V126.2ZM359.111 113.68C359.111 111.099 359.62 109.075 360.523 107.51C361.416 105.963 362.766 104.739 364.673 103.854L362.989 100.226C360.415 101.421 358.406 103.177 357.059 105.51C355.722 107.825 355.111 110.581 355.111 113.68H359.111ZM364.687 103.847C368.838 101.881 375.436 100.8 384.711 100.8V96.8C375.266 96.8 367.944 97.8789 362.975 100.233L364.687 103.847ZM377.911 113.56C377.911 115.666 377.961 117.43 378.066 118.839C378.168 120.202 378.33 121.382 378.614 122.232L382.408 120.968C382.292 120.618 382.154 119.858 382.055 118.541C381.961 117.27 381.911 115.614 381.911 113.56H377.911ZM378.654 122.343C379 123.209 379.537 124.005 380.338 124.577C381.15 125.157 382.084 125.4 383.031 125.4V121.4C382.778 121.4 382.691 121.343 382.663 121.323C382.625 121.295 382.502 121.191 382.368 120.857L378.654 122.343ZM383.031 125.4C385.502 125.4 387.171 123.465 388.285 121.323L384.737 119.477C383.771 121.335 383.12 121.4 383.031 121.4V125.4ZM388.272 121.348C389.61 118.863 390.191 115.652 390.191 111.88H386.191C386.191 115.308 385.652 117.777 384.75 119.452L388.272 121.348ZM390.191 111.88V100.72H386.191V111.88H390.191ZM388.191 98.72H387.351V102.72H388.191V98.72ZM387.351 98.72C384.307 98.72 381.782 99.8813 380.118 102.324C378.548 104.629 377.911 107.835 377.911 111.64H381.911C381.911 108.165 382.514 105.911 383.424 104.576C384.24 103.379 385.435 102.72 387.351 102.72V98.72ZM377.911 111.64V113.56H381.911V111.64H377.911ZM430.29 58.36L428.74 59.6233L428.754 59.6403L428.768 59.6569L430.29 58.36ZM430.53 42.4L429.089 41.0138L429.075 41.0285L429.061 41.0434L430.53 42.4ZM448.65 42.16L447.294 43.6296L447.309 43.644L447.325 43.658L448.65 42.16ZM448.77 58.48L447.329 57.0938L447.329 57.0938L448.77 58.48ZM421.29 69.88V67.88H419.29V69.88H421.29ZM450.69 69.88H452.69V67.88H450.69V69.88ZM450.69 124.84H448.69V126.84H450.69V124.84ZM457.41 124.84H459.41V122.84H457.41V124.84ZM457.41 127V129H459.41V127H457.41ZM421.77 127H419.77V129H421.77V127ZM421.77 124.84V122.84H419.77V124.84H421.77ZM428.37 124.84V126.84H430.37V124.84H428.37ZM428.37 72.04H430.37V70.04H428.37V72.04ZM421.29 72.04H419.29V74.04H421.29V72.04ZM439.41 59.6C435.462 59.6 433.116 58.5934 431.813 57.0631L428.768 59.6569C431.144 62.4466 434.878 63.6 439.41 63.6V59.6ZM431.841 57.0967C430.414 55.3456 429.65 53.1317 429.65 50.32H425.65C425.65 53.9083 426.647 57.0544 428.74 59.6233L431.841 57.0967ZM429.65 50.32C429.65 47.5521 430.466 45.4183 432 43.7566L429.061 41.0434C426.755 43.5417 425.65 46.6878 425.65 50.32H429.65ZM431.972 43.7862C433.468 42.2304 435.859 41.28 439.53 41.28V37.28C435.202 37.28 431.593 38.4096 429.089 41.0138L431.972 43.7862ZM439.53 41.28C443.235 41.28 445.712 42.1692 447.294 43.6296L450.007 40.6904C447.429 38.3108 443.826 37.28 439.53 37.28V41.28ZM447.325 43.658C448.867 45.0216 449.77 47.0886 449.77 50.2H453.77C453.77 46.2714 452.594 42.9784 449.975 40.662L447.325 43.658ZM449.77 50.2C449.77 53.229 448.903 55.4563 447.329 57.0938L450.212 59.8662C452.637 57.3437 453.77 54.051 453.77 50.2H449.77ZM447.329 57.0938C445.852 58.6291 443.362 59.6 439.41 59.6V63.6C443.938 63.6 447.688 62.4909 450.212 59.8662L447.329 57.0938ZM421.29 71.88H450.69V67.88H421.29V71.88ZM448.69 69.88V124.84H452.69V69.88H448.69ZM450.69 126.84H457.41V122.84H450.69V126.84ZM455.41 124.84V127H459.41V124.84H455.41ZM457.41 125H421.77V129H457.41V125ZM423.77 127V124.84H419.77V127H423.77ZM421.77 126.84H428.37V122.84H421.77V126.84ZM430.37 124.84V72.04H426.37V124.84H430.37ZM428.37 70.04H421.29V74.04H428.37V70.04ZM423.29 72.04V69.88H419.29V72.04H423.29ZM462.616 128.2H460.616V130.2H462.616V128.2ZM462.616 106.72V104.72H460.616V106.72H462.616ZM464.056 106.72L465.973 106.147L465.546 104.72H464.056V106.72ZM472.456 121.36L471.211 122.925L471.211 122.925L472.456 121.36ZM494.896 112.72L493.914 114.462L493.919 114.465L494.896 112.72ZM482.896 108.64L482.384 110.573L482.447 110.59L482.51 110.602L482.896 108.64ZM469.216 102.88L468.121 104.553L468.124 104.555L469.216 102.88ZM468.376 74.32L469.76 75.764L469.768 75.7565L469.775 75.749L468.376 74.32ZM495.856 71.44L495.047 73.2691L495.064 73.2763L495.08 73.2833L495.856 71.44ZM503.416 68.44V66.44H502.209L501.646 67.5085L503.416 68.44ZM504.736 68.44H506.736V66.44H504.736V68.44ZM504.736 86.8V88.8H506.736V86.8H504.736ZM503.296 86.8L501.434 87.5304L501.932 88.8H503.296V86.8ZM475.936 73.24L477.078 74.8818L477.102 74.8654L477.125 74.8484L475.936 73.24ZM474.016 81.04L472.438 82.2679L472.473 82.3135L472.511 82.357L474.016 81.04ZM475.336 82.48L476.75 81.0658L476.75 81.0658L475.336 82.48ZM476.896 83.56L475.925 85.3083L476.003 85.3515L476.084 85.3876L476.896 83.56ZM478.696 84.4L477.802 86.1889L477.929 86.2524L478.064 86.2974L478.696 84.4ZM480.856 85.12L480.224 87.0174L480.246 87.0247L480.268 87.0316L480.856 85.12ZM483.136 85.72L483.621 83.7797L483.544 83.7603L483.465 83.7472L483.136 85.72ZM494.896 89.32L494.101 91.1551L494.127 91.1664L494.153 91.177L494.896 89.32ZM501.736 92.92L502.873 91.2745L502.859 91.2651L502.846 91.2559L501.736 92.92ZM502.336 123.04L503.64 124.556L503.649 124.549L503.658 124.541L502.336 123.04ZM471.496 124.72L470.387 126.384L470.49 126.453L470.602 126.509L471.496 124.72ZM464.056 128.2V130.2H465.221L465.796 129.187L464.056 128.2ZM464.616 128.2V106.72H460.616V128.2H464.616ZM462.616 108.72H464.056V104.72H462.616V108.72ZM462.14 107.293C464.271 114.424 467.229 119.758 471.211 122.925L473.701 119.795C470.643 117.362 468.001 112.936 465.973 106.147L462.14 107.293ZM471.211 122.925C475.144 126.054 480.006 127.56 485.656 127.56V123.56C480.746 123.56 476.808 122.266 473.701 119.795L471.211 122.925ZM485.656 127.56C489.884 127.56 493.398 126.898 495.911 125.297C498.577 123.598 499.896 120.982 499.896 117.76H495.896C495.896 119.738 495.175 121.022 493.761 121.923C492.194 122.922 489.588 123.56 485.656 123.56V127.56ZM499.896 117.76C499.896 116.333 499.575 114.989 498.865 113.797C498.157 112.607 497.126 111.677 495.873 110.975L493.919 114.465C494.666 114.883 495.136 115.353 495.428 115.843C495.718 116.331 495.896 116.947 495.896 117.76H499.896ZM495.879 110.978C492.516 109.081 488.297 107.664 483.282 106.678L482.51 110.602C487.256 111.536 491.036 112.839 493.914 114.462L495.879 110.978ZM483.408 106.707C478.119 105.307 473.768 103.461 470.309 101.205L468.124 104.555C472.024 107.099 476.793 109.093 482.384 110.573L483.408 106.707ZM470.312 101.207C466.588 98.7693 464.616 94.911 464.616 89.2H460.616C460.616 95.969 463.045 101.231 468.121 104.553L470.312 101.207ZM464.616 89.2C464.616 83.4027 466.382 79.0013 469.76 75.764L466.992 72.876C462.69 76.9987 460.616 82.5173 460.616 89.2H464.616ZM469.775 75.749C473.172 72.4235 477.753 70.68 483.736 70.68V66.68C476.92 66.68 471.261 68.6965 466.977 72.891L469.775 75.749ZM483.736 70.68C487.336 70.68 491.102 71.5238 495.047 73.2691L496.665 69.6109C492.291 67.6762 487.976 66.68 483.736 66.68V70.68ZM495.08 73.2833C496.64 73.9402 498.113 74.4 499.336 74.4V70.4C498.96 70.4 498.112 70.2198 496.632 69.5967L495.08 73.2833ZM499.336 74.4C500.661 74.4 501.851 73.9135 502.79 72.9742L499.962 70.1458C499.781 70.3265 499.612 70.4 499.336 70.4V74.4ZM502.79 72.9742C503.579 72.1852 504.376 70.9115 505.186 69.3715L501.646 67.5085C500.857 69.0085 500.293 69.8148 499.962 70.1458L502.79 72.9742ZM503.416 70.44H504.736V66.44H503.416V70.44ZM502.736 68.44V86.8H506.736V68.44H502.736ZM504.736 84.8H503.296V88.8H504.736V84.8ZM505.158 86.0696C503.037 80.663 500.269 76.4369 496.767 73.5556C493.232 70.6467 489.057 69.2 484.336 69.2V73.2C488.176 73.2 491.441 74.3533 494.226 76.6444C497.044 78.9631 499.475 82.537 501.434 87.5304L505.158 86.0696ZM484.336 69.2C480.4 69.2 477.09 69.9001 474.747 71.6316L477.125 74.8484C478.462 73.8599 480.753 73.2 484.336 73.2V69.2ZM474.794 71.5982C472.492 73.1995 471.176 75.4184 471.176 78.16H475.176C475.176 76.9016 475.7 75.8405 477.078 74.8818L474.794 71.5982ZM471.176 78.16C471.176 79.6641 471.529 81.0999 472.438 82.2679L475.595 79.8121C475.383 79.5401 475.176 79.0559 475.176 78.16H471.176ZM472.511 82.357C473.08 83.0069 473.554 83.5266 473.922 83.8942L476.75 81.0658C476.478 80.7934 476.073 80.3531 475.521 79.723L472.511 82.357ZM473.922 83.8942C474.44 84.4118 475.152 84.879 475.925 85.3083L477.868 81.8117C477.2 81.441 476.873 81.1882 476.75 81.0658L473.922 83.8942ZM476.084 85.3876C476.788 85.7004 477.358 85.967 477.802 86.1889L479.591 82.6111C479.074 82.3529 478.445 82.0596 477.709 81.7324L476.084 85.3876ZM478.064 86.2974C478.065 86.2977 478.066 86.298 478.067 86.2983C478.068 86.2986 478.068 86.2989 478.069 86.2992C478.07 86.2996 478.071 86.2999 478.072 86.3002C478.073 86.3005 478.074 86.3008 478.075 86.3011C478.076 86.3014 478.077 86.3018 478.078 86.3021C478.079 86.3024 478.08 86.3027 478.081 86.303C478.082 86.3033 478.083 86.3037 478.084 86.304C478.085 86.3043 478.086 86.3046 478.086 86.3049C478.087 86.3052 478.088 86.3056 478.089 86.3059C478.09 86.3062 478.091 86.3065 478.092 86.3068C478.093 86.3071 478.094 86.3075 478.095 86.3078C478.096 86.3081 478.097 86.3084 478.098 86.3087C478.099 86.3091 478.1 86.3094 478.101 86.3097C478.102 86.31 478.103 86.3103 478.104 86.3107C478.105 86.311 478.106 86.3113 478.107 86.3116C478.108 86.312 478.109 86.3123 478.109 86.3126C478.11 86.3129 478.111 86.3132 478.112 86.3136C478.113 86.3139 478.114 86.3142 478.115 86.3145C478.116 86.3149 478.117 86.3152 478.118 86.3155C478.119 86.3158 478.12 86.3162 478.121 86.3165C478.122 86.3168 478.123 86.3171 478.124 86.3175C478.125 86.3178 478.126 86.3181 478.127 86.3184C478.128 86.3188 478.129 86.3191 478.13 86.3194C478.131 86.3197 478.132 86.3201 478.133 86.3204C478.134 86.3207 478.135 86.321 478.136 86.3214C478.137 86.3217 478.138 86.322 478.139 86.3224C478.14 86.3227 478.141 86.323 478.142 86.3233C478.143 86.3237 478.144 86.324 478.145 86.3243C478.146 86.3247 478.147 86.325 478.148 86.3253C478.149 86.3257 478.15 86.326 478.151 86.3263C478.152 86.3266 478.153 86.327 478.154 86.3273C478.155 86.3276 478.156 86.328 478.157 86.3283C478.158 86.3286 478.159 86.329 478.16 86.3293C478.161 86.3296 478.162 86.33 478.163 86.3303C478.164 86.3306 478.165 86.331 478.166 86.3313C478.167 86.3316 478.168 86.332 478.169 86.3323C478.17 86.3326 478.171 86.333 478.172 86.3333C478.173 86.3336 478.174 86.334 478.175 86.3343C478.176 86.3346 478.177 86.335 478.178 86.3353C478.179 86.3357 478.18 86.336 478.181 86.3363C478.182 86.3367 478.183 86.337 478.184 86.3373C478.185 86.3377 478.186 86.338 478.187 86.3384C478.188 86.3387 478.189 86.339 478.19 86.3394C478.191 86.3397 478.192 86.34 478.193 86.3404C478.194 86.3407 478.195 86.3411 478.196 86.3414C478.197 86.3417 478.198 86.3421 478.199 86.3424C478.2 86.3428 478.201 86.3431 478.202 86.3434C478.203 86.3438 478.204 86.3441 478.205 86.3445C478.206 86.3448 478.207 86.3452 478.208 86.3455C478.209 86.3458 478.21 86.3462 478.211 86.3465C478.212 86.3469 478.213 86.3472 478.214 86.3476C478.215 86.3479 478.216 86.3482 478.217 86.3486C478.219 86.3489 478.22 86.3493 478.221 86.3496C478.222 86.35 478.223 86.3503 478.224 86.3507C478.225 86.351 478.226 86.3513 478.227 86.3517C478.228 86.352 478.229 86.3524 478.23 86.3527C478.231 86.3531 478.232 86.3534 478.233 86.3538C478.234 86.3541 478.235 86.3545 478.236 86.3548C478.237 86.3552 478.238 86.3555 478.239 86.3559C478.24 86.3562 478.241 86.3566 478.242 86.3569C478.243 86.3573 478.245 86.3576 478.246 86.358C478.247 86.3583 478.248 86.3587 478.249 86.359C478.25 86.3594 478.251 86.3597 478.252 86.3601C478.253 86.3604 478.254 86.3608 478.255 86.3611C478.256 86.3615 478.257 86.3618 478.258 86.3622C478.259 86.3625 478.26 86.3629 478.261 86.3632C478.262 86.3636 478.264 86.3639 478.265 86.3643C478.266 86.3646 478.267 86.365 478.268 86.3653C478.269 86.3657 478.27 86.3661 478.271 86.3664C478.272 86.3668 478.273 86.3671 478.274 86.3675C478.275 86.3678 478.276 86.3682 478.277 86.3685C478.278 86.3689 478.279 86.3693 478.281 86.3696C478.282 86.37 478.283 86.3703 478.284 86.3707C478.285 86.371 478.286 86.3714 478.287 86.3718C478.288 86.3721 478.289 86.3725 478.29 86.3728C478.291 86.3732 478.292 86.3735 478.293 86.3739C478.294 86.3743 478.296 86.3746 478.297 86.375C478.298 86.3753 478.299 86.3757 478.3 86.3761C478.301 86.3764 478.302 86.3768 478.303 86.3771C478.304 86.3775 478.305 86.3779 478.306 86.3782C478.307 86.3786 478.309 86.3789 478.31 86.3793C478.311 86.3797 478.312 86.38 478.313 86.3804C478.314 86.3808 478.315 86.3811 478.316 86.3815C478.317 86.3818 478.318 86.3822 478.319 86.3826C478.321 86.3829 478.322 86.3833 478.323 86.3837C478.324 86.384 478.325 86.3844 478.326 86.3848C478.327 86.3851 478.328 86.3855 478.329 86.3859C478.33 86.3862 478.331 86.3866 478.333 86.387C478.334 86.3873 478.335 86.3877 478.336 86.3881C478.337 86.3884 478.338 86.3888 478.339 86.3892C478.34 86.3895 478.341 86.3899 478.342 86.3903C478.344 86.3906 478.345 86.391 478.346 86.3914C478.347 86.3917 478.348 86.3921 478.349 86.3925C478.35 86.3928 478.351 86.3932 478.352 86.3936C478.354 86.3939 478.355 86.3943 478.356 86.3947C478.357 86.3951 478.358 86.3954 478.359 86.3958C478.36 86.3962 478.361 86.3965 478.362 86.3969C478.364 86.3973 478.365 86.3977 478.366 86.398C478.367 86.3984 478.368 86.3988 478.369 86.3991C478.37 86.3995 478.371 86.3999 478.373 86.4003C478.374 86.4006 478.375 86.401 478.376 86.4014C478.377 86.4018 478.378 86.4021 478.379 86.4025C478.38 86.4029 478.381 86.4033 478.383 86.4036C478.384 86.404 478.385 86.4044 478.386 86.4048C478.387 86.4051 478.388 86.4055 478.389 86.4059C478.391 86.4063 478.392 86.4066 478.393 86.407C478.394 86.4074 478.395 86.4078 478.396 86.4082C478.397 86.4085 478.398 86.4089 478.4 86.4093C478.401 86.4097 478.402 86.41 478.403 86.4104C478.404 86.4108 478.405 86.4112 478.406 86.4116C478.408 86.4119 478.409 86.4123 478.41 86.4127C478.411 86.4131 478.412 86.4135 478.413 86.4138C478.414 86.4142 478.416 86.4146 478.417 86.415C478.418 86.4154 478.419 86.4158 478.42 86.4161C478.421 86.4165 478.422 86.4169 478.424 86.4173C478.425 86.4177 478.426 86.4181 478.427 86.4184C478.428 86.4188 478.429 86.4192 478.43 86.4196C478.432 86.42 478.433 86.4204 478.434 86.4207C478.435 86.4211 478.436 86.4215 478.437 86.4219C478.439 86.4223 478.44 86.4227 478.441 86.423C478.442 86.4234 478.443 86.4238 478.444 86.4242C478.445 86.4246 478.447 86.425 478.448 86.4254C478.449 86.4258 478.45 86.4261 478.451 86.4265C478.452 86.4269 478.454 86.4273 478.455 86.4277C478.456 86.4281 478.457 86.4285 478.458 86.4289C478.459 86.4292 478.461 86.4296 478.462 86.43C478.463 86.4304 478.464 86.4308 478.465 86.4312C478.466 86.4316 478.468 86.432 478.469 86.4324C478.47 86.4328 478.471 86.4331 478.472 86.4335C478.473 86.4339 478.475 86.4343 478.476 86.4347C478.477 86.4351 478.478 86.4355 478.479 86.4359C478.481 86.4363 478.482 86.4367 478.483 86.4371C478.484 86.4375 478.485 86.4379 478.486 86.4382C478.488 86.4386 478.489 86.439 478.49 86.4394C478.491 86.4398 478.492 86.4402 478.494 86.4406C478.495 86.441 478.496 86.4414 478.497 86.4418C478.498 86.4422 478.499 86.4426 478.501 86.443C478.502 86.4434 478.503 86.4438 478.504 86.4442C478.505 86.4446 478.507 86.445 478.508 86.4454C478.509 86.4458 478.51 86.4462 478.511 86.4466C478.513 86.447 478.514 86.4474 478.515 86.4478C478.516 86.4482 478.517 86.4486 478.519 86.4489C478.52 86.4493 478.521 86.4497 478.522 86.4501C478.523 86.4505 478.525 86.4509 478.526 86.4513C478.527 86.4517 478.528 86.4521 478.529 86.4526C478.531 86.453 478.532 86.4534 478.533 86.4538C478.534 86.4542 478.535 86.4546 478.537 86.455C478.538 86.4554 478.539 86.4558 478.54 86.4562C478.541 86.4566 478.543 86.457 478.544 86.4574C478.545 86.4578 478.546 86.4582 478.547 86.4586C478.549 86.459 478.55 86.4594 478.551 86.4598C478.552 86.4602 478.554 86.4606 478.555 86.461C478.556 86.4614 478.557 86.4618 478.558 86.4622C478.56 86.4626 478.561 86.463 478.562 86.4635C478.563 86.4639 478.564 86.4643 478.566 86.4647C478.567 86.4651 478.568 86.4655 478.569 86.4659C478.571 86.4663 478.572 86.4667 478.573 86.4671C478.574 86.4675 478.576 86.4679 478.577 86.4683C478.578 86.4688 478.579 86.4692 478.58 86.4696C478.582 86.47 478.583 86.4704 478.584 86.4708C478.585 86.4712 478.587 86.4716 478.588 86.472C478.589 86.4724 478.59 86.4729 478.592 86.4733C478.593 86.4737 478.594 86.4741 478.595 86.4745C478.596 86.4749 478.598 86.4753 478.599 86.4757C478.6 86.4762 478.601 86.4766 478.603 86.477C478.604 86.4774 478.605 86.4778 478.606 86.4782C478.608 86.4786 478.609 86.479 478.61 86.4795C478.611 86.4799 478.613 86.4803 478.614 86.4807C478.615 86.4811 478.616 86.4815 478.618 86.482C478.619 86.4824 478.62 86.4828 478.621 86.4832C478.623 86.4836 478.624 86.484 478.625 86.4844C478.626 86.4849 478.628 86.4853 478.629 86.4857C478.63 86.4861 478.631 86.4865 478.633 86.487C478.634 86.4874 478.635 86.4878 478.636 86.4882C478.638 86.4886 478.639 86.489 478.64 86.4895C478.641 86.4899 478.643 86.4903 478.644 86.4907C478.645 86.4911 478.646 86.4916 478.648 86.492C478.649 86.4924 478.65 86.4928 478.651 86.4932C478.653 86.4937 478.654 86.4941 478.655 86.4945C478.657 86.4949 478.658 86.4954 478.659 86.4958C478.66 86.4962 478.662 86.4966 478.663 86.497C478.664 86.4975 478.665 86.4979 478.667 86.4983C478.668 86.4987 478.669 86.4992 478.67 86.4996C478.672 86.5 478.673 86.5004 478.674 86.5009C478.676 86.5013 478.677 86.5017 478.678 86.5021C478.679 86.5026 478.681 86.503 478.682 86.5034C478.683 86.5038 478.684 86.5043 478.686 86.5047C478.687 86.5051 478.688 86.5055 478.69 86.506C478.691 86.5064 478.692 86.5068 478.693 86.5073C478.695 86.5077 478.696 86.5081 478.697 86.5085C478.699 86.509 478.7 86.5094 478.701 86.5098C478.702 86.5103 478.704 86.5107 478.705 86.5111C478.706 86.5115 478.708 86.512 478.709 86.5124C478.71 86.5128 478.711 86.5133 478.713 86.5137C478.714 86.5141 478.715 86.5146 478.717 86.515C478.718 86.5154 478.719 86.5159 478.721 86.5163C478.722 86.5167 478.723 86.5171 478.724 86.5176C478.726 86.518 478.727 86.5184 478.728 86.5189C478.73 86.5193 478.731 86.5197 478.732 86.5202C478.734 86.5206 478.735 86.5211 478.736 86.5215C478.737 86.5219 478.739 86.5224 478.74 86.5228C478.741 86.5232 478.743 86.5237 478.744 86.5241C478.745 86.5245 478.747 86.525 478.748 86.5254C478.749 86.5258 478.751 86.5263 478.752 86.5267C478.753 86.5272 478.754 86.5276 478.756 86.528C478.757 86.5285 478.758 86.5289 478.76 86.5293C478.761 86.5298 478.762 86.5302 478.764 86.5307C478.765 86.5311 478.766 86.5315 478.768 86.532C478.769 86.5324 478.77 86.5329 478.772 86.5333C478.773 86.5337 478.774 86.5342 478.776 86.5346C478.777 86.5351 478.778 86.5355 478.78 86.5359C478.781 86.5364 478.782 86.5368 478.783 86.5373C478.785 86.5377 478.786 86.5381 478.787 86.5386C478.789 86.539 478.79 86.5395 478.791 86.5399C478.793 86.5404 478.794 86.5408 478.795 86.5412C478.797 86.5417 478.798 86.5421 478.799 86.5426C478.801 86.543 478.802 86.5435 478.803 86.5439C478.805 86.5444 478.806 86.5448 478.807 86.5452C478.809 86.5457 478.81 86.5461 478.811 86.5466C478.813 86.547 478.814 86.5475 478.815 86.5479C478.817 86.5484 478.818 86.5488 478.82 86.5493C478.821 86.5497 478.822 86.5502 478.824 86.5506C478.825 86.5511 478.826 86.5515 478.828 86.552C478.829 86.5524 478.83 86.5529 478.832 86.5533C478.833 86.5538 478.834 86.5542 478.836 86.5547C478.837 86.5551 478.838 86.5556 478.84 86.556C478.841 86.5565 478.842 86.5569 478.844 86.5574C478.845 86.5578 478.846 86.5583 478.848 86.5587C478.849 86.5592 478.851 86.5596 478.852 86.5601C478.853 86.5605 478.855 86.561 478.856 86.5614C478.857 86.5619 478.859 86.5623 478.86 86.5628C478.861 86.5632 478.863 86.5637 478.864 86.5641C478.865 86.5646 478.867 86.5651 478.868 86.5655C478.87 86.566 478.871 86.5664 478.872 86.5669C478.874 86.5673 478.875 86.5678 478.876 86.5682C478.878 86.5687 478.879 86.5691 478.881 86.5696C478.882 86.5701 478.883 86.5705 478.885 86.571C478.886 86.5714 478.887 86.5719 478.889 86.5723C478.89 86.5728 478.891 86.5733 478.893 86.5737C478.894 86.5742 478.896 86.5746 478.897 86.5751C478.898 86.5756 478.9 86.576 478.901 86.5765C478.903 86.5769 478.904 86.5774 478.905 86.5779C478.907 86.5783 478.908 86.5788 478.909 86.5792C478.911 86.5797 478.912 86.5802 478.914 86.5806C478.915 86.5811 478.916 86.5815 478.918 86.582C478.919 86.5825 478.92 86.5829 478.922 86.5834C478.923 86.5839 478.925 86.5843 478.926 86.5848C478.927 86.5852 478.929 86.5857 478.93 86.5862C478.932 86.5866 478.933 86.5871 478.934 86.5876C478.936 86.588 478.937 86.5885 478.939 86.589C478.94 86.5894 478.941 86.5899 478.943 86.5904C478.944 86.5908 478.946 86.5913 478.947 86.5918C478.948 86.5922 478.95 86.5927 478.951 86.5932C478.953 86.5936 478.954 86.5941 478.955 86.5946C478.957 86.595 478.958 86.5955 478.96 86.596C478.961 86.5964 478.962 86.5969 478.964 86.5974C478.965 86.5978 478.967 86.5983 478.968 86.5988C478.969 86.5992 478.971 86.5997 478.972 86.6002C478.974 86.6007 478.975 86.6011 478.976 86.6016C478.978 86.6021 478.979 86.6025 478.981 86.603C478.982 86.6035 478.984 86.6039 478.985 86.6044C478.986 86.6049 478.988 86.6054 478.989 86.6058C478.991 86.6063 478.992 86.6068 478.993 86.6073C478.995 86.6077 478.996 86.6082 478.998 86.6087C478.999 86.6091 479.001 86.6096 479.002 86.6101C479.003 86.6106 479.005 86.611 479.006 86.6115C479.008 86.612 479.009 86.6125 479.011 86.6129C479.012 86.6134 479.013 86.6139 479.015 86.6144C479.016 86.6148 479.018 86.6153 479.019 86.6158C479.021 86.6163 479.022 86.6168 479.023 86.6172C479.025 86.6177 479.026 86.6182 479.028 86.6187C479.029 86.6191 479.031 86.6196 479.032 86.6201C479.033 86.6206 479.035 86.6211 479.036 86.6215C479.038 86.622 479.039 86.6225 479.041 86.623C479.042 86.6235 479.044 86.6239 479.045 86.6244C479.046 86.6249 479.048 86.6254 479.049 86.6259C479.051 86.6263 479.052 86.6268 479.054 86.6273C479.055 86.6278 479.056 86.6283 479.058 86.6287C479.059 86.6292 479.061 86.6297 479.062 86.6302C479.064 86.6307 479.065 86.6312 479.067 86.6316C479.068 86.6321 479.07 86.6326 479.071 86.6331C479.072 86.6336 479.074 86.6341 479.075 86.6345C479.077 86.635 479.078 86.6355 479.08 86.636C479.081 86.6365 479.083 86.637 479.084 86.6375C479.086 86.6379 479.087 86.6384 479.088 86.6389C479.09 86.6394 479.091 86.6399 479.093 86.6404C479.094 86.6409 479.096 86.6414 479.097 86.6418C479.099 86.6423 479.1 86.6428 479.102 86.6433C479.103 86.6438 479.105 86.6443 479.106 86.6448C479.107 86.6453 479.109 86.6457 479.11 86.6462C479.112 86.6467 479.113 86.6472 479.115 86.6477C479.116 86.6482 479.118 86.6487 479.119 86.6492C479.121 86.6497 479.122 86.6502 479.124 86.6506C479.125 86.6511 479.127 86.6516 479.128 86.6521C479.13 86.6526 479.131 86.6531 479.133 86.6536C479.134 86.6541 479.135 86.6546 479.137 86.6551C479.138 86.6556 479.14 86.6561 479.141 86.6566C479.143 86.6571 479.144 86.6575 479.146 86.658C479.147 86.6585 479.149 86.659 479.15 86.6595C479.152 86.66 479.153 86.6605 479.155 86.661C479.156 86.6615 479.158 86.662 479.159 86.6625C479.161 86.663 479.162 86.6635 479.164 86.664C479.165 86.6645 479.167 86.665 479.168 86.6655C479.17 86.666 479.171 86.6665 479.173 86.667C479.174 86.6675 479.176 86.668 479.177 86.6685C479.179 86.669 479.18 86.6695 479.182 86.67C479.183 86.6705 479.185 86.671 479.186 86.6715C479.188 86.672 479.189 86.6725 479.191 86.673C479.192 86.6735 479.194 86.674 479.195 86.6745C479.197 86.675 479.198 86.6755 479.2 86.676C479.201 86.6765 479.203 86.677 479.204 86.6775C479.206 86.678 479.207 86.6785 479.209 86.679C479.21 86.6795 479.212 86.68 479.213 86.6805C479.215 86.681 479.216 86.6815 479.218 86.682C479.219 86.6825 479.221 86.683 479.222 86.6835C479.224 86.684 479.225 86.6845 479.227 86.685C479.228 86.6855 479.23 86.686 479.231 86.6866C479.233 86.6871 479.234 86.6876 479.236 86.6881C479.237 86.6886 479.239 86.6891 479.24 86.6896C479.242 86.6901 479.244 86.6906 479.245 86.6911C479.247 86.6916 479.248 86.6921 479.25 86.6926C479.251 86.6931 479.253 86.6937 479.254 86.6942C479.256 86.6947 479.257 86.6952 479.259 86.6957C479.26 86.6962 479.262 86.6967 479.263 86.6972C479.265 86.6977 479.266 86.6982 479.268 86.6988C479.269 86.6993 479.271 86.6998 479.273 86.7003C479.274 86.7008 479.276 86.7013 479.277 86.7018C479.279 86.7023 479.28 86.7028 479.282 86.7034C479.283 86.7039 479.285 86.7044 479.286 86.7049C479.288 86.7054 479.289 86.7059 479.291 86.7064C479.293 86.707 479.294 86.7075 479.296 86.708C479.297 86.7085 479.299 86.709 479.3 86.7095C479.302 86.71 479.303 86.7106 479.305 86.7111C479.306 86.7116 479.308 86.7121 479.31 86.7126C479.311 86.7131 479.313 86.7137 479.314 86.7142C479.316 86.7147 479.317 86.7152 479.319 86.7157C479.32 86.7162 479.322 86.7168 479.324 86.7173C479.325 86.7178 479.327 86.7183 479.328 86.7188C479.33 86.7194 479.331 86.7199 479.333 86.7204C479.334 86.7209 479.336 86.7214 479.338 86.7219C479.339 86.7225 479.341 86.723 479.342 86.7235C479.344 86.724 479.345 86.7246 479.347 86.7251C479.348 86.7256 479.35 86.7261 479.352 86.7266C479.353 86.7272 479.355 86.7277 479.356 86.7282C479.358 86.7287 479.359 86.7292 479.361 86.7298C479.363 86.7303 479.364 86.7308 479.366 86.7313C479.367 86.7319 479.369 86.7324 479.37 86.7329C479.372 86.7334 479.374 86.734 479.375 86.7345C479.377 86.735 479.378 86.7355 479.38 86.7361C479.381 86.7366 479.383 86.7371 479.385 86.7376C479.386 86.7382 479.388 86.7387 479.389 86.7392C479.391 86.7397 479.393 86.7403 479.394 86.7408C479.396 86.7413 479.397 86.7419 479.399 86.7424C479.4 86.7429 479.402 86.7434 479.404 86.744C479.405 86.7445 479.407 86.745 479.408 86.7456C479.41 86.7461 479.412 86.7466 479.413 86.7471C479.415 86.7477 479.416 86.7482 479.418 86.7487C479.419 86.7493 479.421 86.7498 479.423 86.7503C479.424 86.7509 479.426 86.7514 479.427 86.7519C479.429 86.7525 479.431 86.753 479.432 86.7535C479.434 86.754 479.435 86.7546 479.437 86.7551C479.439 86.7556 479.44 86.7562 479.442 86.7567C479.443 86.7572 479.445 86.7578 479.447 86.7583C479.448 86.7588 479.45 86.7594 479.451 86.7599C479.453 86.7605 479.455 86.761 479.456 86.7615C479.458 86.7621 479.459 86.7626 479.461 86.7631C479.463 86.7637 479.464 86.7642 479.466 86.7647C479.468 86.7653 479.469 86.7658 479.471 86.7663C479.472 86.7669 479.474 86.7674 479.476 86.768C479.477 86.7685 479.479 86.769 479.48 86.7696C479.482 86.7701 479.484 86.7707 479.485 86.7712C479.487 86.7717 479.489 86.7723 479.49 86.7728C479.492 86.7733 479.493 86.7739 479.495 86.7744C479.497 86.775 479.498 86.7755 479.5 86.7761C479.501 86.7766 479.503 86.7771 479.505 86.7777C479.506 86.7782 479.508 86.7788 479.51 86.7793C479.511 86.7798 479.513 86.7804 479.514 86.7809C479.516 86.7815 479.518 86.782 479.519 86.7826C479.521 86.7831 479.523 86.7836 479.524 86.7842C479.526 86.7847 479.528 86.7853 479.529 86.7858C479.531 86.7864 479.532 86.7869 479.534 86.7875C479.536 86.788 479.537 86.7885 479.539 86.7891C479.541 86.7896 479.542 86.7902 479.544 86.7907C479.546 86.7913 479.547 86.7918 479.549 86.7924C479.55 86.7929 479.552 86.7935 479.554 86.794C479.555 86.7946 479.557 86.7951 479.559 86.7956C479.56 86.7962 479.562 86.7967 479.564 86.7973C479.565 86.7978 479.567 86.7984 479.569 86.7989C479.57 86.7995 479.572 86.8 479.573 86.8006C479.575 86.8011 479.577 86.8017 479.578 86.8022C479.58 86.8028 479.582 86.8033 479.583 86.8039C479.585 86.8044 479.587 86.805 479.588 86.8055C479.59 86.8061 479.592 86.8067 479.593 86.8072C479.595 86.8078 479.597 86.8083 479.598 86.8089C479.6 86.8094 479.602 86.81 479.603 86.8105C479.605 86.8111 479.607 86.8116 479.608 86.8122C479.61 86.8127 479.612 86.8133 479.613 86.8138C479.615 86.8144 479.617 86.815 479.618 86.8155C479.62 86.8161 479.622 86.8166 479.623 86.8172C479.625 86.8177 479.627 86.8183 479.628 86.8188C479.63 86.8194 479.632 86.82 479.633 86.8205C479.635 86.8211 479.637 86.8216 479.638 86.8222C479.64 86.8228 479.642 86.8233 479.643 86.8239C479.645 86.8244 479.647 86.825 479.648 86.8255C479.65 86.8261 479.652 86.8267 479.653 86.8272C479.655 86.8278 479.657 86.8283 479.658 86.8289C479.66 86.8295 479.662 86.83 479.663 86.8306C479.665 86.8311 479.667 86.8317 479.669 86.8323C479.67 86.8328 479.672 86.8334 479.674 86.834C479.675 86.8345 479.677 86.8351 479.679 86.8356C479.68 86.8362 479.682 86.8368 479.684 86.8373C479.685 86.8379 479.687 86.8385 479.689 86.839C479.69 86.8396 479.692 86.8401 479.694 86.8407C479.696 86.8413 479.697 86.8418 479.699 86.8424C479.701 86.843 479.702 86.8435 479.704 86.8441C479.706 86.8447 479.707 86.8452 479.709 86.8458C479.711 86.8464 479.713 86.8469 479.714 86.8475C479.716 86.8481 479.718 86.8486 479.719 86.8492C479.721 86.8498 479.723 86.8503 479.724 86.8509C479.726 86.8515 479.728 86.852 479.73 86.8526C479.731 86.8532 479.733 86.8538 479.735 86.8543C479.736 86.8549 479.738 86.8555 479.74 86.856C479.742 86.8566 479.743 86.8572 479.745 86.8577C479.747 86.8583 479.748 86.8589 479.75 86.8595C479.752 86.86 479.753 86.8606 479.755 86.8612C479.757 86.8617 479.759 86.8623 479.76 86.8629C479.762 86.8635 479.764 86.864 479.766 86.8646C479.767 86.8652 479.769 86.8658 479.771 86.8663C479.772 86.8669 479.774 86.8675 479.776 86.868C479.778 86.8686 479.779 86.8692 479.781 86.8698C479.783 86.8703 479.784 86.8709 479.786 86.8715C479.788 86.8721 479.79 86.8726 479.791 86.8732C479.793 86.8738 479.795 86.8744 479.797 86.875C479.798 86.8755 479.8 86.8761 479.802 86.8767C479.803 86.8773 479.805 86.8778 479.807 86.8784C479.809 86.879 479.81 86.8796 479.812 86.8802C479.814 86.8807 479.816 86.8813 479.817 86.8819C479.819 86.8825 479.821 86.883 479.823 86.8836C479.824 86.8842 479.826 86.8848 479.828 86.8854C479.83 86.8859 479.831 86.8865 479.833 86.8871C479.835 86.8877 479.837 86.8883 479.838 86.8889C479.84 86.8894 479.842 86.89 479.844 86.8906C479.845 86.8912 479.847 86.8918 479.849 86.8923C479.85 86.8929 479.852 86.8935 479.854 86.8941C479.856 86.8947 479.857 86.8953 479.859 86.8958C479.861 86.8964 479.863 86.897 479.865 86.8976C479.866 86.8982 479.868 86.8988 479.87 86.8994C479.872 86.8999 479.873 86.9005 479.875 86.9011C479.877 86.9017 479.879 86.9023 479.88 86.9029C479.882 86.9035 479.884 86.904 479.886 86.9046C479.887 86.9052 479.889 86.9058 479.891 86.9064C479.893 86.907 479.894 86.9076 479.896 86.9082C479.898 86.9087 479.9 86.9093 479.901 86.9099C479.903 86.9105 479.905 86.9111 479.907 86.9117C479.909 86.9123 479.91 86.9129 479.912 86.9135C479.914 86.9141 479.916 86.9146 479.917 86.9152C479.919 86.9158 479.921 86.9164 479.923 86.917C479.925 86.9176 479.926 86.9182 479.928 86.9188C479.93 86.9194 479.932 86.92 479.933 86.9206C479.935 86.9212 479.937 86.9217 479.939 86.9223C479.941 86.9229 479.942 86.9235 479.944 86.9241C479.946 86.9247 479.948 86.9253 479.949 86.9259C479.951 86.9265 479.953 86.9271 479.955 86.9277C479.957 86.9283 479.958 86.9289 479.96 86.9295C479.962 86.9301 479.964 86.9307 479.965 86.9313C479.967 86.9319 479.969 86.9325 479.971 86.9331C479.973 86.9336 479.974 86.9342 479.976 86.9348C479.978 86.9354 479.98 86.936 479.982 86.9366C479.983 86.9372 479.985 86.9378 479.987 86.9384C479.989 86.939 479.991 86.9396 479.992 86.9402C479.994 86.9408 479.996 86.9414 479.998 86.942C480 86.9426 480.001 86.9432 480.003 86.9438C480.005 86.9444 480.007 86.945 480.009 86.9456C480.01 86.9462 480.012 86.9468 480.014 86.9474C480.016 86.948 480.018 86.9486 480.019 86.9492C480.021 86.9498 480.023 86.9504 480.025 86.9511C480.027 86.9517 480.028 86.9523 480.03 86.9529C480.032 86.9535 480.034 86.9541 480.036 86.9547C480.038 86.9553 480.039 86.9559 480.041 86.9565C480.043 86.9571 480.045 86.9577 480.047 86.9583C480.048 86.9589 480.05 86.9595 480.052 86.9601C480.054 86.9607 480.056 86.9613 480.058 86.9619C480.059 86.9625 480.061 86.9632 480.063 86.9638C480.065 86.9644 480.067 86.965 480.068 86.9656C480.07 86.9662 480.072 86.9668 480.074 86.9674C480.076 86.968 480.078 86.9686 480.079 86.9692C480.081 86.9698 480.083 86.9705 480.085 86.9711C480.087 86.9717 480.089 86.9723 480.09 86.9729C480.092 86.9735 480.094 86.9741 480.096 86.9747C480.098 86.9753 480.1 86.9759 480.101 86.9766C480.103 86.9772 480.105 86.9778 480.107 86.9784C480.109 86.979 480.111 86.9796 480.112 86.9802C480.114 86.9808 480.116 86.9815 480.118 86.9821C480.12 86.9827 480.122 86.9833 480.123 86.9839C480.125 86.9845 480.127 86.9851 480.129 86.9858C480.131 86.9864 480.133 86.987 480.134 86.9876C480.136 86.9882 480.138 86.9888 480.14 86.9894C480.142 86.9901 480.144 86.9907 480.146 86.9913C480.147 86.9919 480.149 86.9925 480.151 86.9931C480.153 86.9938 480.155 86.9944 480.157 86.995C480.159 86.9956 480.16 86.9962 480.162 86.9969C480.164 86.9975 480.166 86.9981 480.168 86.9987C480.17 86.9993 480.172 86.9999 480.173 87.0006C480.175 87.0012 480.177 87.0018 480.179 87.0024C480.181 87.003 480.183 87.0037 480.185 87.0043C480.186 87.0049 480.188 87.0055 480.19 87.0061C480.192 87.0068 480.194 87.0074 480.196 87.008C480.198 87.0086 480.199 87.0093 480.201 87.0099C480.203 87.0105 480.205 87.0111 480.207 87.0117C480.209 87.0124 480.211 87.013 480.213 87.0136C480.214 87.0142 480.216 87.0149 480.218 87.0155C480.22 87.0161 480.222 87.0167 480.224 87.0174L481.489 83.2226C481.487 83.222 481.485 83.2214 481.483 83.2208C481.481 83.2201 481.479 83.2195 481.477 83.2189C481.476 83.2183 481.474 83.2176 481.472 83.217C481.47 83.2164 481.468 83.2158 481.466 83.2151C481.464 83.2145 481.463 83.2139 481.461 83.2133C481.459 83.2127 481.457 83.212 481.455 83.2114C481.453 83.2108 481.451 83.2102 481.449 83.2096C481.448 83.2089 481.446 83.2083 481.444 83.2077C481.442 83.2071 481.44 83.2065 481.438 83.2058C481.436 83.2052 481.435 83.2046 481.433 83.204C481.431 83.2034 481.429 83.2027 481.427 83.2021C481.425 83.2015 481.423 83.2009 481.422 83.2003C481.42 83.1996 481.418 83.199 481.416 83.1984C481.414 83.1978 481.412 83.1972 481.41 83.1966C481.409 83.1959 481.407 83.1953 481.405 83.1947C481.403 83.1941 481.401 83.1935 481.399 83.1929C481.398 83.1923 481.396 83.1916 481.394 83.191C481.392 83.1904 481.39 83.1898 481.388 83.1892C481.387 83.1886 481.385 83.188 481.383 83.1873C481.381 83.1867 481.379 83.1861 481.377 83.1855C481.375 83.1849 481.374 83.1843 481.372 83.1837C481.37 83.183 481.368 83.1824 481.366 83.1818C481.364 83.1812 481.363 83.1806 481.361 83.18C481.359 83.1794 481.357 83.1788 481.355 83.1782C481.353 83.1775 481.352 83.1769 481.35 83.1763C481.348 83.1757 481.346 83.1751 481.344 83.1745C481.342 83.1739 481.341 83.1733 481.339 83.1727C481.337 83.1721 481.335 83.1715 481.333 83.1709C481.332 83.1702 481.33 83.1696 481.328 83.169C481.326 83.1684 481.324 83.1678 481.322 83.1672C481.321 83.1666 481.319 83.166 481.317 83.1654C481.315 83.1648 481.313 83.1642 481.312 83.1636C481.31 83.163 481.308 83.1624 481.306 83.1618C481.304 83.1612 481.302 83.1605 481.301 83.1599C481.299 83.1593 481.297 83.1587 481.295 83.1581C481.293 83.1575 481.292 83.1569 481.29 83.1563C481.288 83.1557 481.286 83.1551 481.284 83.1545C481.283 83.1539 481.281 83.1533 481.279 83.1527C481.277 83.1521 481.275 83.1515 481.274 83.1509C481.272 83.1503 481.27 83.1497 481.268 83.1491C481.266 83.1485 481.264 83.1479 481.263 83.1473C481.261 83.1467 481.259 83.1461 481.257 83.1455C481.256 83.1449 481.254 83.1443 481.252 83.1437C481.25 83.1431 481.248 83.1425 481.247 83.1419C481.245 83.1413 481.243 83.1407 481.241 83.1401C481.239 83.1395 481.238 83.1389 481.236 83.1383C481.234 83.1377 481.232 83.1371 481.23 83.1365C481.229 83.1359 481.227 83.1353 481.225 83.1347C481.223 83.1341 481.221 83.1336 481.22 83.133C481.218 83.1324 481.216 83.1318 481.214 83.1312C481.213 83.1306 481.211 83.13 481.209 83.1294C481.207 83.1288 481.205 83.1282 481.204 83.1276C481.202 83.127 481.2 83.1264 481.198 83.1258C481.197 83.1252 481.195 83.1246 481.193 83.1241C481.191 83.1235 481.189 83.1229 481.188 83.1223C481.186 83.1217 481.184 83.1211 481.182 83.1205C481.181 83.1199 481.179 83.1193 481.177 83.1187C481.175 83.1181 481.173 83.1176 481.172 83.117C481.17 83.1164 481.168 83.1158 481.166 83.1152C481.165 83.1146 481.163 83.114 481.161 83.1134C481.159 83.1128 481.158 83.1123 481.156 83.1117C481.154 83.1111 481.152 83.1105 481.151 83.1099C481.149 83.1093 481.147 83.1087 481.145 83.1081C481.143 83.1076 481.142 83.107 481.14 83.1064C481.138 83.1058 481.136 83.1052 481.135 83.1046C481.133 83.104 481.131 83.1035 481.129 83.1029C481.128 83.1023 481.126 83.1017 481.124 83.1011C481.122 83.1005 481.121 83.0999 481.119 83.0994C481.117 83.0988 481.115 83.0982 481.114 83.0976C481.112 83.097 481.11 83.0965 481.108 83.0959C481.107 83.0953 481.105 83.0947 481.103 83.0941C481.101 83.0935 481.1 83.093 481.098 83.0924C481.096 83.0918 481.094 83.0912 481.093 83.0906C481.091 83.0901 481.089 83.0895 481.087 83.0889C481.086 83.0883 481.084 83.0877 481.082 83.0872C481.081 83.0866 481.079 83.086 481.077 83.0854C481.075 83.0848 481.074 83.0843 481.072 83.0837C481.07 83.0831 481.068 83.0825 481.067 83.082C481.065 83.0814 481.063 83.0808 481.061 83.0802C481.06 83.0796 481.058 83.0791 481.056 83.0785C481.055 83.0779 481.053 83.0773 481.051 83.0768C481.049 83.0762 481.048 83.0756 481.046 83.075C481.044 83.0745 481.042 83.0739 481.041 83.0733C481.039 83.0727 481.037 83.0722 481.036 83.0716C481.034 83.071 481.032 83.0704 481.03 83.0699C481.029 83.0693 481.027 83.0687 481.025 83.0682C481.024 83.0676 481.022 83.067 481.02 83.0664C481.018 83.0659 481.017 83.0653 481.015 83.0647C481.013 83.0642 481.012 83.0636 481.01 83.063C481.008 83.0624 481.006 83.0619 481.005 83.0613C481.003 83.0607 481.001 83.0602 481 83.0596C480.998 83.059 480.996 83.0585 480.994 83.0579C480.993 83.0573 480.991 83.0567 480.989 83.0562C480.988 83.0556 480.986 83.055 480.984 83.0545C480.983 83.0539 480.981 83.0533 480.979 83.0528C480.977 83.0522 480.976 83.0516 480.974 83.0511C480.972 83.0505 480.971 83.0499 480.969 83.0494C480.967 83.0488 480.966 83.0482 480.964 83.0477C480.962 83.0471 480.96 83.0465 480.959 83.046C480.957 83.0454 480.955 83.0449 480.954 83.0443C480.952 83.0437 480.95 83.0432 480.949 83.0426C480.947 83.042 480.945 83.0415 480.944 83.0409C480.942 83.0403 480.94 83.0398 480.938 83.0392C480.937 83.0387 480.935 83.0381 480.933 83.0375C480.932 83.037 480.93 83.0364 480.928 83.0359C480.927 83.0353 480.925 83.0347 480.923 83.0342C480.922 83.0336 480.92 83.033 480.918 83.0325C480.917 83.0319 480.915 83.0314 480.913 83.0308C480.912 83.0303 480.91 83.0297 480.908 83.0291C480.907 83.0286 480.905 83.028 480.903 83.0275C480.902 83.0269 480.9 83.0263 480.898 83.0258C480.897 83.0252 480.895 83.0247 480.893 83.0241C480.891 83.0236 480.89 83.023 480.888 83.0224C480.886 83.0219 480.885 83.0213 480.883 83.0208C480.881 83.0202 480.88 83.0197 480.878 83.0191C480.876 83.0186 480.875 83.018 480.873 83.0175C480.872 83.0169 480.87 83.0163 480.868 83.0158C480.867 83.0152 480.865 83.0147 480.863 83.0141C480.862 83.0136 480.86 83.013 480.858 83.0125C480.857 83.0119 480.855 83.0114 480.853 83.0108C480.852 83.0103 480.85 83.0097 480.848 83.0092C480.847 83.0086 480.845 83.0081 480.843 83.0075C480.842 83.007 480.84 83.0064 480.838 83.0059C480.837 83.0053 480.835 83.0048 480.833 83.0042C480.832 83.0037 480.83 83.0031 480.828 83.0026C480.827 83.002 480.825 83.0015 480.824 83.0009C480.822 83.0004 480.82 82.9998 480.819 82.9993C480.817 82.9987 480.815 82.9982 480.814 82.9976C480.812 82.9971 480.81 82.9965 480.809 82.996C480.807 82.9954 480.806 82.9949 480.804 82.9944C480.802 82.9938 480.801 82.9933 480.799 82.9927C480.797 82.9922 480.796 82.9916 480.794 82.9911C480.792 82.9905 480.791 82.99 480.789 82.9895C480.788 82.9889 480.786 82.9884 480.784 82.9878C480.783 82.9873 480.781 82.9867 480.779 82.9862C480.778 82.9857 480.776 82.9851 480.775 82.9846C480.773 82.984 480.771 82.9835 480.77 82.9829C480.768 82.9824 480.766 82.9819 480.765 82.9813C480.763 82.9808 480.762 82.9802 480.76 82.9797C480.758 82.9792 480.757 82.9786 480.755 82.9781C480.753 82.9775 480.752 82.977 480.75 82.9765C480.749 82.9759 480.747 82.9754 480.745 82.9748C480.744 82.9743 480.742 82.9738 480.74 82.9732C480.739 82.9727 480.737 82.9722 480.736 82.9716C480.734 82.9711 480.732 82.9705 480.731 82.97C480.729 82.9695 480.728 82.9689 480.726 82.9684C480.724 82.9679 480.723 82.9673 480.721 82.9668C480.72 82.9663 480.718 82.9657 480.716 82.9652C480.715 82.9647 480.713 82.9641 480.712 82.9636C480.71 82.963 480.708 82.9625 480.707 82.962C480.705 82.9614 480.704 82.9609 480.702 82.9604C480.7 82.9598 480.699 82.9593 480.697 82.9588C480.696 82.9583 480.694 82.9577 480.692 82.9572C480.691 82.9567 480.689 82.9561 480.688 82.9556C480.686 82.9551 480.684 82.9545 480.683 82.954C480.681 82.9535 480.68 82.9529 480.678 82.9524C480.676 82.9519 480.675 82.9514 480.673 82.9508C480.672 82.9503 480.67 82.9498 480.669 82.9492C480.667 82.9487 480.665 82.9482 480.664 82.9477C480.662 82.9471 480.661 82.9466 480.659 82.9461C480.657 82.9455 480.656 82.945 480.654 82.9445C480.653 82.944 480.651 82.9434 480.65 82.9429C480.648 82.9424 480.646 82.9419 480.645 82.9413C480.643 82.9408 480.642 82.9403 480.64 82.9398C480.639 82.9392 480.637 82.9387 480.635 82.9382C480.634 82.9377 480.632 82.9371 480.631 82.9366C480.629 82.9361 480.628 82.9356 480.626 82.935C480.624 82.9345 480.623 82.934 480.621 82.9335C480.62 82.9329 480.618 82.9324 480.617 82.9319C480.615 82.9314 480.613 82.9309 480.612 82.9303C480.61 82.9298 480.609 82.9293 480.607 82.9288C480.606 82.9283 480.604 82.9277 480.602 82.9272C480.601 82.9267 480.599 82.9262 480.598 82.9257C480.596 82.9251 480.595 82.9246 480.593 82.9241C480.592 82.9236 480.59 82.9231 480.588 82.9225C480.587 82.922 480.585 82.9215 480.584 82.921C480.582 82.9205 480.581 82.92 480.579 82.9194C480.578 82.9189 480.576 82.9184 480.574 82.9179C480.573 82.9174 480.571 82.9169 480.57 82.9163C480.568 82.9158 480.567 82.9153 480.565 82.9148C480.564 82.9143 480.562 82.9138 480.561 82.9133C480.559 82.9127 480.557 82.9122 480.556 82.9117C480.554 82.9112 480.553 82.9107 480.551 82.9102C480.55 82.9097 480.548 82.9091 480.547 82.9086C480.545 82.9081 480.544 82.9076 480.542 82.9071C480.541 82.9066 480.539 82.9061 480.537 82.9056C480.536 82.905 480.534 82.9045 480.533 82.904C480.531 82.9035 480.53 82.903 480.528 82.9025C480.527 82.902 480.525 82.9015 480.524 82.901C480.522 82.9005 480.521 82.8999 480.519 82.8994C480.518 82.8989 480.516 82.8984 480.515 82.8979C480.513 82.8974 480.511 82.8969 480.51 82.8964C480.508 82.8959 480.507 82.8954 480.505 82.8949C480.504 82.8944 480.502 82.8938 480.501 82.8933C480.499 82.8928 480.498 82.8923 480.496 82.8918C480.495 82.8913 480.493 82.8908 480.492 82.8903C480.49 82.8898 480.489 82.8893 480.487 82.8888C480.486 82.8883 480.484 82.8878 480.483 82.8873C480.481 82.8868 480.48 82.8863 480.478 82.8858C480.477 82.8853 480.475 82.8848 480.474 82.8843C480.472 82.8838 480.471 82.8832 480.469 82.8827C480.468 82.8822 480.466 82.8817 480.465 82.8812C480.463 82.8807 480.462 82.8802 480.46 82.8797C480.459 82.8792 480.457 82.8787 480.456 82.8782C480.454 82.8777 480.453 82.8772 480.451 82.8767C480.45 82.8762 480.448 82.8757 480.447 82.8752C480.445 82.8747 480.444 82.8742 480.442 82.8737C480.441 82.8732 480.439 82.8727 480.438 82.8722C480.436 82.8717 480.435 82.8712 480.433 82.8707C480.432 82.8703 480.43 82.8698 480.429 82.8693C480.427 82.8688 480.426 82.8683 480.424 82.8678C480.423 82.8673 480.421 82.8668 480.42 82.8663C480.418 82.8658 480.417 82.8653 480.415 82.8648C480.414 82.8643 480.412 82.8638 480.411 82.8633C480.409 82.8628 480.408 82.8623 480.406 82.8618C480.405 82.8613 480.403 82.8608 480.402 82.8603C480.4 82.8599 480.399 82.8594 480.397 82.8589C480.396 82.8584 480.394 82.8579 480.393 82.8574C480.392 82.8569 480.39 82.8564 480.389 82.8559C480.387 82.8554 480.386 82.8549 480.384 82.8544C480.383 82.854 480.381 82.8535 480.38 82.853C480.378 82.8525 480.377 82.852 480.375 82.8515C480.374 82.851 480.372 82.8505 480.371 82.85C480.369 82.8495 480.368 82.8491 480.367 82.8486C480.365 82.8481 480.364 82.8476 480.362 82.8471C480.361 82.8466 480.359 82.8461 480.358 82.8456C480.356 82.8452 480.355 82.8447 480.353 82.8442C480.352 82.8437 480.35 82.8432 480.349 82.8427C480.348 82.8422 480.346 82.8418 480.345 82.8413C480.343 82.8408 480.342 82.8403 480.34 82.8398C480.339 82.8393 480.337 82.8388 480.336 82.8384C480.334 82.8379 480.333 82.8374 480.332 82.8369C480.33 82.8364 480.329 82.8359 480.327 82.8355C480.326 82.835 480.324 82.8345 480.323 82.834C480.321 82.8335 480.32 82.833 480.319 82.8326C480.317 82.8321 480.316 82.8316 480.314 82.8311C480.313 82.8306 480.311 82.8302 480.31 82.8297C480.308 82.8292 480.307 82.8287 480.306 82.8282C480.304 82.8278 480.303 82.8273 480.301 82.8268C480.3 82.8263 480.298 82.8258 480.297 82.8254C480.295 82.8249 480.294 82.8244 480.293 82.8239C480.291 82.8235 480.29 82.823 480.288 82.8225C480.287 82.822 480.285 82.8215 480.284 82.8211C480.283 82.8206 480.281 82.8201 480.28 82.8196C480.278 82.8192 480.277 82.8187 480.275 82.8182C480.274 82.8177 480.273 82.8173 480.271 82.8168C480.27 82.8163 480.268 82.8158 480.267 82.8154C480.265 82.8149 480.264 82.8144 480.263 82.8139C480.261 82.8135 480.26 82.813 480.258 82.8125C480.257 82.812 480.256 82.8116 480.254 82.8111C480.253 82.8106 480.251 82.8102 480.25 82.8097C480.248 82.8092 480.247 82.8087 480.246 82.8083C480.244 82.8078 480.243 82.8073 480.241 82.8069C480.24 82.8064 480.239 82.8059 480.237 82.8054C480.236 82.805 480.234 82.8045 480.233 82.804C480.232 82.8036 480.23 82.8031 480.229 82.8026C480.227 82.8022 480.226 82.8017 480.224 82.8012C480.223 82.8008 480.222 82.8003 480.22 82.7998C480.219 82.7994 480.217 82.7989 480.216 82.7984C480.215 82.798 480.213 82.7975 480.212 82.797C480.21 82.7966 480.209 82.7961 480.208 82.7956C480.206 82.7952 480.205 82.7947 480.203 82.7942C480.202 82.7938 480.201 82.7933 480.199 82.7928C480.198 82.7924 480.197 82.7919 480.195 82.7914C480.194 82.791 480.192 82.7905 480.191 82.7901C480.19 82.7896 480.188 82.7891 480.187 82.7887C480.185 82.7882 480.184 82.7877 480.183 82.7873C480.181 82.7868 480.18 82.7864 480.178 82.7859C480.177 82.7854 480.176 82.785 480.174 82.7845C480.173 82.784 480.172 82.7836 480.17 82.7831C480.169 82.7827 480.167 82.7822 480.166 82.7817C480.165 82.7813 480.163 82.7808 480.162 82.7804C480.161 82.7799 480.159 82.7794 480.158 82.779C480.156 82.7785 480.155 82.7781 480.154 82.7776C480.152 82.7772 480.151 82.7767 480.15 82.7762C480.148 82.7758 480.147 82.7753 480.145 82.7749C480.144 82.7744 480.143 82.774 480.141 82.7735C480.14 82.773 480.139 82.7726 480.137 82.7721C480.136 82.7717 480.134 82.7712 480.133 82.7708C480.132 82.7703 480.13 82.7699 480.129 82.7694C480.128 82.769 480.126 82.7685 480.125 82.768C480.124 82.7676 480.122 82.7671 480.121 82.7667C480.12 82.7662 480.118 82.7658 480.117 82.7653C480.115 82.7649 480.114 82.7644 480.113 82.764C480.111 82.7635 480.11 82.7631 480.109 82.7626C480.107 82.7622 480.106 82.7617 480.105 82.7613C480.103 82.7608 480.102 82.7604 480.101 82.7599C480.099 82.7595 480.098 82.759 480.097 82.7586C480.095 82.7581 480.094 82.7577 480.092 82.7572C480.091 82.7568 480.09 82.7563 480.088 82.7559C480.087 82.7554 480.086 82.755 480.084 82.7545C480.083 82.7541 480.082 82.7536 480.08 82.7532C480.079 82.7527 480.078 82.7523 480.076 82.7519C480.075 82.7514 480.074 82.751 480.072 82.7505C480.071 82.7501 480.07 82.7496 480.068 82.7492C480.067 82.7487 480.066 82.7483 480.064 82.7478C480.063 82.7474 480.062 82.747 480.06 82.7465C480.059 82.7461 480.058 82.7456 480.056 82.7452C480.055 82.7447 480.054 82.7443 480.052 82.7439C480.051 82.7434 480.05 82.743 480.048 82.7425C480.047 82.7421 480.046 82.7416 480.044 82.7412C480.043 82.7408 480.042 82.7403 480.04 82.7399C480.039 82.7394 480.038 82.739 480.036 82.7386C480.035 82.7381 480.034 82.7377 480.033 82.7372C480.031 82.7368 480.03 82.7364 480.029 82.7359C480.027 82.7355 480.026 82.735 480.025 82.7346C480.023 82.7342 480.022 82.7337 480.021 82.7333C480.019 82.7329 480.018 82.7324 480.017 82.732C480.015 82.7315 480.014 82.7311 480.013 82.7307C480.012 82.7302 480.01 82.7298 480.009 82.7294C480.008 82.7289 480.006 82.7285 480.005 82.7281C480.004 82.7276 480.002 82.7272 480.001 82.7268C480 82.7263 479.998 82.7259 479.997 82.7255C479.996 82.725 479.995 82.7246 479.993 82.7241C479.992 82.7237 479.991 82.7233 479.989 82.7229C479.988 82.7224 479.987 82.722 479.985 82.7216C479.984 82.7211 479.983 82.7207 479.982 82.7203C479.98 82.7198 479.979 82.7194 479.978 82.719C479.976 82.7185 479.975 82.7181 479.974 82.7177C479.973 82.7172 479.971 82.7168 479.97 82.7164C479.969 82.716 479.967 82.7155 479.966 82.7151C479.965 82.7147 479.964 82.7142 479.962 82.7138C479.961 82.7134 479.96 82.713 479.958 82.7125C479.957 82.7121 479.956 82.7117 479.955 82.7112C479.953 82.7108 479.952 82.7104 479.951 82.71C479.949 82.7095 479.948 82.7091 479.947 82.7087C479.946 82.7083 479.944 82.7078 479.943 82.7074C479.942 82.707 479.94 82.7066 479.939 82.7061C479.938 82.7057 479.937 82.7053 479.935 82.7049C479.934 82.7044 479.933 82.704 479.932 82.7036C479.93 82.7032 479.929 82.7027 479.928 82.7023C479.926 82.7019 479.925 82.7015 479.924 82.701C479.923 82.7006 479.921 82.7002 479.92 82.6998C479.919 82.6994 479.918 82.6989 479.916 82.6985C479.915 82.6981 479.914 82.6977 479.913 82.6973C479.911 82.6968 479.91 82.6964 479.909 82.696C479.908 82.6956 479.906 82.6952 479.905 82.6947C479.904 82.6943 479.902 82.6939 479.901 82.6935C479.9 82.6931 479.899 82.6926 479.897 82.6922C479.896 82.6918 479.895 82.6914 479.894 82.691C479.892 82.6905 479.891 82.6901 479.89 82.6897C479.889 82.6893 479.887 82.6889 479.886 82.6885C479.885 82.688 479.884 82.6876 479.882 82.6872C479.881 82.6868 479.88 82.6864 479.879 82.686C479.877 82.6856 479.876 82.6851 479.875 82.6847C479.874 82.6843 479.873 82.6839 479.871 82.6835C479.87 82.6831 479.869 82.6827 479.868 82.6822C479.866 82.6818 479.865 82.6814 479.864 82.681C479.863 82.6806 479.861 82.6802 479.86 82.6798C479.859 82.6794 479.858 82.6789 479.856 82.6785C479.855 82.6781 479.854 82.6777 479.853 82.6773C479.851 82.6769 479.85 82.6765 479.849 82.6761C479.848 82.6757 479.847 82.6752 479.845 82.6748C479.844 82.6744 479.843 82.674 479.842 82.6736C479.84 82.6732 479.839 82.6728 479.838 82.6724C479.837 82.672 479.836 82.6716 479.834 82.6712C479.833 82.6708 479.832 82.6703 479.831 82.6699C479.829 82.6695 479.828 82.6691 479.827 82.6687C479.826 82.6683 479.825 82.6679 479.823 82.6675C479.822 82.6671 479.821 82.6667 479.82 82.6663C479.818 82.6659 479.817 82.6655 479.816 82.6651C479.815 82.6647 479.814 82.6643 479.812 82.6639C479.811 82.6635 479.81 82.663 479.809 82.6626C479.808 82.6622 479.806 82.6618 479.805 82.6614C479.804 82.661 479.803 82.6606 479.801 82.6602C479.8 82.6598 479.799 82.6594 479.798 82.659C479.797 82.6586 479.795 82.6582 479.794 82.6578C479.793 82.6574 479.792 82.657 479.791 82.6566C479.789 82.6562 479.788 82.6558 479.787 82.6554C479.786 82.655 479.785 82.6546 479.783 82.6542C479.782 82.6538 479.781 82.6534 479.78 82.653C479.779 82.6526 479.777 82.6522 479.776 82.6518C479.775 82.6514 479.774 82.651 479.773 82.6506C479.772 82.6502 479.77 82.6498 479.769 82.6494C479.768 82.649 479.767 82.6486 479.766 82.6483C479.764 82.6479 479.763 82.6475 479.762 82.6471C479.761 82.6467 479.76 82.6463 479.758 82.6459C479.757 82.6455 479.756 82.6451 479.755 82.6447C479.754 82.6443 479.753 82.6439 479.751 82.6435C479.75 82.6431 479.749 82.6427 479.748 82.6423C479.747 82.6419 479.745 82.6415 479.744 82.6412C479.743 82.6408 479.742 82.6404 479.741 82.64C479.74 82.6396 479.738 82.6392 479.737 82.6388C479.736 82.6384 479.735 82.638 479.734 82.6376C479.733 82.6372 479.731 82.6369 479.73 82.6365C479.729 82.6361 479.728 82.6357 479.727 82.6353C479.726 82.6349 479.724 82.6345 479.723 82.6341C479.722 82.6337 479.721 82.6333 479.72 82.633C479.719 82.6326 479.717 82.6322 479.716 82.6318C479.715 82.6314 479.714 82.631 479.713 82.6306C479.712 82.6302 479.71 82.6299 479.709 82.6295C479.708 82.6291 479.707 82.6287 479.706 82.6283C479.705 82.6279 479.703 82.6275 479.702 82.6272C479.701 82.6268 479.7 82.6264 479.699 82.626C479.698 82.6256 479.697 82.6252 479.695 82.6249C479.694 82.6245 479.693 82.6241 479.692 82.6237C479.691 82.6233 479.69 82.6229 479.688 82.6226C479.687 82.6222 479.686 82.6218 479.685 82.6214C479.684 82.621 479.683 82.6206 479.682 82.6203C479.68 82.6199 479.679 82.6195 479.678 82.6191C479.677 82.6187 479.676 82.6184 479.675 82.618C479.674 82.6176 479.672 82.6172 479.671 82.6168C479.67 82.6165 479.669 82.6161 479.668 82.6157C479.667 82.6153 479.666 82.6149 479.664 82.6146C479.663 82.6142 479.662 82.6138 479.661 82.6134C479.66 82.613 479.659 82.6127 479.658 82.6123C479.657 82.6119 479.655 82.6115 479.654 82.6112C479.653 82.6108 479.652 82.6104 479.651 82.61C479.65 82.6097 479.649 82.6093 479.648 82.6089C479.646 82.6085 479.645 82.6082 479.644 82.6078C479.643 82.6074 479.642 82.607 479.641 82.6067C479.64 82.6063 479.639 82.6059 479.637 82.6055C479.636 82.6052 479.635 82.6048 479.634 82.6044C479.633 82.604 479.632 82.6037 479.631 82.6033C479.63 82.6029 479.628 82.6026 479.627 82.6022C479.626 82.6018 479.625 82.6014 479.624 82.6011C479.623 82.6007 479.622 82.6003 479.621 82.6C479.62 82.5996 479.618 82.5992 479.617 82.5988C479.616 82.5985 479.615 82.5981 479.614 82.5977C479.613 82.5974 479.612 82.597 479.611 82.5966C479.61 82.5963 479.608 82.5959 479.607 82.5955C479.606 82.5952 479.605 82.5948 479.604 82.5944C479.603 82.5941 479.602 82.5937 479.601 82.5933C479.6 82.593 479.599 82.5926 479.597 82.5922C479.596 82.5919 479.595 82.5915 479.594 82.5911C479.593 82.5908 479.592 82.5904 479.591 82.59C479.59 82.5897 479.589 82.5893 479.588 82.5889C479.587 82.5886 479.585 82.5882 479.584 82.5878C479.583 82.5875 479.582 82.5871 479.581 82.5868C479.58 82.5864 479.579 82.586 479.578 82.5857C479.577 82.5853 479.576 82.5849 479.575 82.5846C479.573 82.5842 479.572 82.5839 479.571 82.5835C479.57 82.5831 479.569 82.5828 479.568 82.5824C479.567 82.582 479.566 82.5817 479.565 82.5813C479.564 82.581 479.563 82.5806 479.562 82.5802C479.56 82.5799 479.559 82.5795 479.558 82.5792C479.557 82.5788 479.556 82.5785 479.555 82.5781C479.554 82.5777 479.553 82.5774 479.552 82.577C479.551 82.5767 479.55 82.5763 479.549 82.5759C479.548 82.5756 479.547 82.5752 479.545 82.5749C479.544 82.5745 479.543 82.5742 479.542 82.5738C479.541 82.5735 479.54 82.5731 479.539 82.5727C479.538 82.5724 479.537 82.572 479.536 82.5717C479.535 82.5713 479.534 82.571 479.533 82.5706C479.532 82.5703 479.531 82.5699 479.529 82.5696C479.528 82.5692 479.527 82.5688 479.526 82.5685C479.525 82.5681 479.524 82.5678 479.523 82.5674C479.522 82.5671 479.521 82.5667 479.52 82.5664C479.519 82.566 479.518 82.5657 479.517 82.5653C479.516 82.565 479.515 82.5646 479.514 82.5643C479.513 82.5639 479.512 82.5636 479.51 82.5632C479.509 82.5629 479.508 82.5625 479.507 82.5622C479.506 82.5618 479.505 82.5615 479.504 82.5611C479.503 82.5608 479.502 82.5604 479.501 82.5601C479.5 82.5597 479.499 82.5594 479.498 82.559C479.497 82.5587 479.496 82.5583 479.495 82.558C479.494 82.5577 479.493 82.5573 479.492 82.557C479.491 82.5566 479.49 82.5563 479.489 82.5559C479.488 82.5556 479.487 82.5552 479.485 82.5549C479.484 82.5545 479.483 82.5542 479.482 82.5539C479.481 82.5535 479.48 82.5532 479.479 82.5528C479.478 82.5525 479.477 82.5521 479.476 82.5518C479.475 82.5515 479.474 82.5511 479.473 82.5508C479.472 82.5504 479.471 82.5501 479.47 82.5497C479.469 82.5494 479.468 82.5491 479.467 82.5487C479.466 82.5484 479.465 82.548 479.464 82.5477C479.463 82.5474 479.462 82.547 479.461 82.5467C479.46 82.5463 479.459 82.546 479.458 82.5457C479.457 82.5453 479.456 82.545 479.455 82.5446C479.454 82.5443 479.453 82.544 479.452 82.5436C479.451 82.5433 479.45 82.5429 479.449 82.5426C479.448 82.5423 479.447 82.5419 479.446 82.5416C479.445 82.5413 479.444 82.5409 479.443 82.5406C479.442 82.5403 479.441 82.5399 479.44 82.5396C479.439 82.5392 479.438 82.5389 479.437 82.5386C479.436 82.5382 479.435 82.5379 479.434 82.5376C479.433 82.5372 479.432 82.5369 479.431 82.5366C479.43 82.5362 479.429 82.5359 479.428 82.5356C479.427 82.5352 479.426 82.5349 479.425 82.5346C479.424 82.5342 479.423 82.5339 479.422 82.5336C479.421 82.5332 479.42 82.5329 479.419 82.5326C479.418 82.5322 479.417 82.5319 479.416 82.5316C479.415 82.5312 479.414 82.5309 479.413 82.5306C479.412 82.5303 479.411 82.5299 479.41 82.5296C479.409 82.5293 479.408 82.5289 479.407 82.5286C479.406 82.5283 479.405 82.528 479.404 82.5276C479.403 82.5273 479.402 82.527 479.401 82.5266C479.4 82.5263 479.399 82.526 479.398 82.5257C479.397 82.5253 479.396 82.525 479.395 82.5247C479.394 82.5244 479.393 82.524 479.392 82.5237C479.391 82.5234 479.39 82.523 479.389 82.5227C479.388 82.5224 479.387 82.5221 479.386 82.5217C479.385 82.5214 479.384 82.5211 479.383 82.5208C479.382 82.5205 479.381 82.5201 479.38 82.5198C479.379 82.5195 479.378 82.5192 479.377 82.5188C479.376 82.5185 479.375 82.5182 479.374 82.5179C479.373 82.5175 479.372 82.5172 479.372 82.5169C479.371 82.5166 479.37 82.5163 479.369 82.5159C479.368 82.5156 479.367 82.5153 479.366 82.515C479.365 82.5147 479.364 82.5143 479.363 82.514C479.362 82.5137 479.361 82.5134 479.36 82.5131C479.359 82.5127 479.358 82.5124 479.357 82.5121C479.356 82.5118 479.355 82.5115 479.354 82.5111C479.353 82.5108 479.352 82.5105 479.351 82.5102C479.35 82.5099 479.349 82.5096 479.349 82.5092C479.348 82.5089 479.347 82.5086 479.346 82.5083C479.345 82.508 479.344 82.5077 479.343 82.5073C479.342 82.507 479.341 82.5067 479.34 82.5064C479.339 82.5061 479.338 82.5058 479.337 82.5055C479.336 82.5051 479.335 82.5048 479.334 82.5045C479.333 82.5042 479.332 82.5039 479.332 82.5036C479.331 82.5033 479.33 82.5029 479.329 82.5026L478.064 86.2974ZM480.268 87.0316C481.316 87.3538 482.185 87.5891 482.807 87.6928L483.465 83.7472C483.127 83.6909 482.477 83.5262 481.444 83.2084L480.268 87.0316ZM482.651 87.6603C488.077 89.0167 491.861 90.1846 494.101 91.1551L495.691 87.4849C493.131 86.3754 489.076 85.1433 483.621 83.7797L482.651 87.6603ZM494.153 91.177C496.424 92.0853 498.582 93.2206 500.627 94.5841L502.846 91.2559C500.571 89.7394 498.168 88.4747 495.639 87.463L494.153 91.177ZM500.599 94.5655C504.313 97.1313 506.336 101.337 506.336 107.68H510.336C510.336 100.423 507.959 94.7887 502.873 91.2745L500.599 94.5655ZM506.336 107.68C506.336 113.987 504.476 118.493 501.015 121.539L503.658 124.541C508.197 120.547 510.336 114.813 510.336 107.68H506.336ZM501.032 121.524C497.497 124.564 492.533 126.2 485.896 126.2V130.2C493.18 130.2 499.175 128.396 503.64 124.556L501.032 121.524ZM485.896 126.2C481.261 126.2 476.766 125.119 472.391 122.931L470.602 126.509C475.506 128.961 480.611 130.2 485.896 130.2V126.2ZM472.606 123.056C471.601 122.386 470.412 121.76 469.216 121.76V125.76C469.135 125.76 469.19 125.742 469.43 125.843C469.658 125.939 469.974 126.109 470.387 126.384L472.606 123.056ZM469.216 121.76C466.263 121.76 464.031 124.193 462.317 127.213L465.796 129.187C467.442 126.287 468.65 125.76 469.216 125.76V121.76ZM464.056 126.2H462.616V130.2H464.056V126.2ZM520.168 120.28L518.721 121.661L518.732 121.673L518.743 121.683L520.168 120.28ZM521.128 76.24L519.821 74.7259L519.81 74.7348L521.128 76.24ZM569.488 96.04V98.04H571.41L571.486 96.1189L569.488 96.04ZM535.648 96.04V94.04H533.648V96.04H535.648ZM538.648 118.48L536.859 119.374L536.859 119.374L538.648 118.48ZM567.328 109.6L567.656 107.627L565.903 107.335L565.407 109.042L567.328 109.6ZM569.488 109.96L571.421 110.47L571.981 108.348L569.816 107.987L569.488 109.96ZM561.208 123.4L559.958 121.838L559.95 121.844L559.943 121.851L561.208 123.4ZM535.768 93.64H533.768V95.64H535.768V93.64ZM548.128 93.64V95.64H550.128V93.64H548.128ZM546.928 74.56L545.012 75.1347L545.024 75.1736L545.037 75.212L546.928 74.56ZM537.328 74.8L535.495 73.9984L535.489 74.0124L535.483 74.0265L537.328 74.8ZM543.448 126.2C533.449 126.2 526.289 123.645 521.592 118.877L518.743 121.683C524.446 127.475 532.806 130.2 543.448 130.2V126.2ZM521.614 118.899C516.939 114.005 514.488 107.152 514.488 98.08H510.488C510.488 107.888 513.156 115.835 518.721 121.661L521.614 118.899ZM514.488 98.08C514.488 88.9847 517.221 82.3156 522.445 77.7452L519.81 74.7348C513.514 80.2444 510.488 88.1353 510.488 98.08H514.488ZM522.434 77.7541C527.853 73.0772 534.765 70.68 543.328 70.68V66.68C533.97 66.68 526.082 69.3227 519.821 74.7259L522.434 77.7541ZM543.328 70.68C552.104 70.68 558.199 72.8832 562.042 76.9022C565.887 80.9233 567.837 87.1391 567.489 95.9611L571.486 96.1189C571.858 86.7009 569.808 79.2367 564.933 74.1378C560.056 69.0368 552.711 66.68 543.328 66.68V70.68ZM569.488 94.04H535.648V98.04H569.488V94.04ZM533.648 96.04V100.72H537.648V96.04H533.648ZM533.648 100.72C533.648 108.67 534.652 114.96 536.859 119.374L540.436 117.586C538.643 114 537.648 108.45 537.648 100.72H533.648ZM536.859 119.374C538.014 121.684 539.642 123.496 541.761 124.714C543.868 125.925 546.34 126.48 549.088 126.48V122.48C546.876 122.48 545.127 122.035 543.754 121.246C542.393 120.464 541.281 119.276 540.436 117.586L536.859 119.374ZM549.088 126.48C554.1 126.48 558.412 125.132 561.872 122.31C565.312 119.503 567.73 115.385 569.248 110.158L565.407 109.042C564.045 113.735 561.983 117.057 559.343 119.21C556.723 121.348 553.355 122.48 549.088 122.48V126.48ZM566.999 111.573L569.159 111.933L569.816 107.987L567.656 107.627L566.999 111.573ZM567.554 109.45C566.125 114.865 563.571 118.948 559.958 121.838L562.457 124.962C566.844 121.452 569.81 116.575 571.421 110.47L567.554 109.45ZM559.943 121.851C556.533 124.635 551.153 126.2 543.448 126.2V130.2C551.582 130.2 558.042 128.565 562.472 124.949L559.943 121.851ZM535.768 95.64H548.128V91.64H535.768V95.64ZM550.128 93.64V87.76H546.128V93.64H550.128ZM550.128 87.76C550.128 81.3075 549.742 76.5869 548.818 73.908L545.037 75.212C545.713 77.173 546.128 81.2525 546.128 87.76H550.128ZM548.843 73.9853C548.4 72.5071 547.652 71.2101 546.487 70.2902C545.308 69.3594 543.885 68.96 542.367 68.96V72.96C543.17 72.96 543.667 73.1606 544.008 73.4298C544.363 73.7099 544.735 74.2129 545.012 75.1347L548.843 73.9853ZM542.367 68.96C540.838 68.96 539.426 69.4071 538.215 70.3291C537.031 71.2312 536.149 72.5041 535.495 73.9984L539.16 75.6016C539.626 74.5359 540.144 73.8888 540.64 73.5109C541.109 73.1529 541.657 72.96 542.367 72.96V68.96ZM535.483 74.0265C534.274 76.9102 533.768 81.5903 533.768 87.76H537.768C537.768 81.6097 538.301 77.6498 539.172 75.5734L535.483 74.0265ZM533.768 87.76V93.64H537.768V87.76H533.768Z" fill="white"/>
</svg>
