<svg width="138" height="39" viewBox="0 0 138 39" fill="none" xmlns="http://www.w3.org/2000/svg">
<path d="M17.293 9.84766C17.293 10.5117 17.0651 10.9089 16.6094 11.0391L15.2031 11.4883C14.9948 11.5664 14.7799 11.5339 14.5586 11.3906C14.3503 11.2344 14.2461 10.987 14.2461 10.6484C14.2461 7.11979 13.6732 5.08854 12.5273 4.55469C11.9935 4.29427 11.4076 4.30729 10.7695 4.59375C9.9362 5.02344 9.13542 5.92188 8.36719 7.28906C7.59896 8.64323 7.1888 10.1862 7.13672 11.918C7.11068 12.6081 7.22786 13.1484 7.48828 13.5391C7.7487 13.9297 8.25651 14.2422 9.01172 14.4766L10.6523 15.043C12.2018 15.5768 13.2174 16.1953 13.6992 16.8984C14.194 17.6016 14.4284 18.6367 14.4023 20.0039C14.3763 22.8815 13.4388 25.5378 11.5898 27.9727C9.74089 30.3945 7.625 31.6185 5.24219 31.6445C2.10417 31.6445 0.535156 29.0859 0.535156 23.9688C0.483073 22.901 0.678385 22.2956 1.12109 22.1523L2.60547 21.6836C2.87891 21.5794 3.10026 21.599 3.26953 21.7422C3.4388 21.8854 3.52344 22.1198 3.52344 22.4453C3.4974 26.4427 4.03125 28.6953 5.125 29.2031C5.52865 29.2812 6.04948 29.1901 6.6875 28.9297C7.78125 28.4479 8.74479 27.4583 9.57812 25.9609C10.4245 24.4635 10.9193 23.0052 11.0625 21.5859C11.2188 20.1536 11.1341 19.2096 10.8086 18.7539C10.4831 18.2982 9.64323 17.862 8.28906 17.4453L6.60938 16.918C5.86719 16.6836 5.22266 16.2604 4.67578 15.6484C4.12891 15.0234 3.85547 14.2487 3.85547 13.3242C3.85547 11.6706 4.20703 9.95833 4.91016 8.1875C5.61328 6.40365 6.65495 4.86068 8.03516 3.55859C9.42839 2.25651 10.9583 1.60547 12.625 1.60547C14.2917 1.60547 15.4831 2.3151 16.1992 3.73438C16.9284 5.14062 17.293 7.17839 17.293 9.84766ZM17.1562 25.1992C17.2734 21.6315 18.1654 18.2526 19.832 15.0625C21.4987 11.8724 23.6211 10.3034 26.1992 10.3555C27.5404 10.4336 28.582 11.1042 29.3242 12.3672C29.8841 13.2396 30.112 14.7174 30.0078 16.8008C29.9036 20.7461 28.8229 24.3984 26.7656 27.7578C25.3464 30.2188 23.4388 31.4036 21.043 31.3125C20.1966 31.2865 19.4089 30.9154 18.6797 30.1992C17.5859 29.1576 17.0781 27.4909 17.1562 25.1992ZM23.9727 26.8008C25.7826 23.9492 26.7396 20.7591 26.8438 17.2305C26.8698 15.668 26.7852 14.6198 26.5898 14.0859C26.4076 13.5521 26.0169 13.2786 25.418 13.2656C24.819 13.2526 24.2721 13.5326 23.7773 14.1055C23.2826 14.6784 22.8008 15.4727 22.332 16.4883C21.1471 18.8581 20.5026 21.6315 20.3984 24.8086C20.3464 27.2044 20.763 28.4414 21.6484 28.5195C22.4167 28.5456 23.1914 27.9727 23.9727 26.8008ZM35.2422 21.918L39.4023 15.043C40.2878 13.5977 41.1927 12.5104 42.1172 11.7812C43.0547 11.0521 43.8555 10.6875 44.5195 10.6875H45.3594C45.7891 10.6875 46.1211 10.7591 46.3555 10.9023C46.6029 11.0456 46.7982 11.3711 46.9414 11.8789C47.0977 12.3867 47.026 13.1354 46.7266 14.125L42.2539 30.4336C42.1758 30.8112 41.9609 31 41.6094 31H39.5195C39.1289 31 39.0247 30.681 39.207 30.043L43.4062 16.3125C43.6146 15.5964 43.7188 15.1276 43.7188 14.9062C43.7188 14.6719 43.6276 14.5547 43.4453 14.5547C43.263 14.5547 43.0417 14.6784 42.7812 14.9258C42.5339 15.1602 42.1953 15.5964 41.7656 16.2344C41.2578 16.9635 40.6458 17.9076 39.9297 19.0664C39.2135 20.2253 38.3086 21.6576 37.2148 23.3633C35.1576 26.5013 33.6992 28.8581 32.8398 30.4336C32.6315 30.8112 32.3125 31 31.8828 31H30.7695C30.6133 31 30.4831 30.8958 30.3789 30.6875C30.2617 30.4661 30.2422 30.2253 30.3203 29.9648L35.1641 11.7227C35.2943 11.0326 35.5612 10.6875 35.9648 10.6875H37.6055C38.2435 10.6875 38.4583 11.0716 38.25 11.8398L35.2422 21.918ZM56.3555 10.7656C57.2409 10.7656 58.0938 11.0195 58.9141 11.5273C59.0703 10.9935 59.3503 10.7266 59.7539 10.7266L61.1211 10.6875C61.7852 10.6615 62.0521 11.0065 61.9219 11.7227C61.3099 14.1706 59.3503 21.2604 56.043 32.9922C55.3529 35.4792 54.2982 37.1068 52.8789 37.875C52.1367 38.3307 51.5573 38.5716 51.1406 38.5977C50.724 38.6237 50.0924 38.3958 49.2461 37.9141L45.1641 35.6094C44.526 35.2839 44.4154 34.8021 44.832 34.1641L45.4375 33.3242C45.8672 32.8424 46.3099 32.7318 46.7656 32.9922L51.1992 35.7266C51.8112 35.987 52.2539 35.6224 52.5273 34.6328L54.4414 27.6406C53.8555 28.6302 53.1979 29.457 52.4688 30.1211C51.7526 30.7852 51.1667 31.1172 50.7109 31.1172H50.6328C50.4245 31.1172 50.0924 30.9674 49.6367 30.668C49.181 30.3555 48.7383 29.9388 48.3086 29.418C47.8919 28.8971 47.5924 28.3438 47.4102 27.7578C47.2409 27.1719 47.2734 26.0781 47.5078 24.4766C47.7552 22.875 48.3607 20.7266 49.3242 18.0312C50.3008 15.3229 51.3164 13.4349 52.3711 12.3672C53.4258 11.2995 54.7539 10.7656 56.3555 10.7656ZM58.2695 13.7148C56.9414 12.9727 55.8281 12.9206 54.9297 13.5586C54.0443 14.1966 53.1523 15.7266 52.2539 18.1484C51.3685 20.5573 50.7956 22.4453 50.5352 23.8125C50.2878 25.1667 50.1836 26.0846 50.2227 26.5664C50.2617 27.0482 50.4961 27.3997 50.9258 27.6211C51.3685 27.8424 52.1042 27.3672 53.1328 26.1953C54.1615 25.0234 55.0339 23.5065 55.75 21.6445C56.4792 19.7695 57.2799 17.25 58.1523 14.0859L58.2695 13.7148ZM72.9766 13.7148C71.6484 12.9727 70.5352 12.9206 69.6367 13.5586C68.7513 14.1966 67.8984 15.6159 67.0781 17.8164C66.2708 20.0169 65.6784 21.9505 65.3008 23.6172C64.9362 25.2839 64.8841 26.4362 65.1445 27.0742C65.418 27.7122 65.8607 27.849 66.4727 27.4844C67.7227 26.6771 68.8424 25.1927 69.832 23.0312C70.8346 20.8568 71.8828 17.7513 72.9766 13.7148ZM79.3828 1.56641L71.7852 27.9531C72.5534 27.3411 73.3542 26.4622 74.1875 25.3164C74.474 24.8867 74.806 24.7956 75.1836 25.043L76.1406 25.6875C76.5703 25.974 76.6354 26.306 76.3359 26.6836C75.2422 27.9596 74.2331 28.9557 73.3086 29.6719C72.3971 30.375 71.3164 30.8698 70.0664 31.1562C69.6888 31.2344 69.4479 31.0911 69.3438 30.7266L68.582 28.5195C68.0482 29.2617 67.4818 29.8802 66.8828 30.375C66.2839 30.8698 65.7956 31.1172 65.418 31.1172H65.3398C64.832 31.1172 64.1549 30.681 63.3086 29.8086C62.4753 28.9232 62.0456 27.9727 62.0195 26.957C61.9935 24.8737 62.5794 22.1654 63.7773 18.832C64.9883 15.4987 66.1146 13.3177 67.1562 12.2891C68.2109 11.2474 69.513 10.7396 71.0625 10.7656C71.9479 10.7656 72.7878 11.0065 73.582 11.4883L76.2578 1.52734C76.4271 0.941406 76.8307 0.648438 77.4688 0.648438H78.5039C79.2721 0.648438 79.5651 0.954427 79.3828 1.56641ZM84.0117 16.0391C84.8581 14.6589 85.6393 13.513 86.3555 12.6016C87.0846 11.6901 87.612 11.1237 87.9375 10.9023C88.276 10.668 88.862 10.5508 89.6953 10.5508H90.0859C90.8672 10.5508 91.1341 10.8503 90.8867 11.4492C90.7565 11.7617 90.431 12.1523 89.9102 12.6211C89.3893 13.0898 88.6797 13.8906 87.7812 15.0234C86.8958 16.1562 86.4531 16.8919 86.4531 17.2305C86.4531 17.9336 86.7852 18.5911 87.4492 19.2031C87.6055 19.3333 87.651 19.4766 87.5859 19.6328C87.5208 19.776 87.3841 19.8737 87.1758 19.9258L85.6523 20.1992C85.2227 20.2773 84.8906 20.2318 84.6562 20.0625C84.4349 19.8932 84.0443 19.2878 83.4844 18.2461L80.418 30.1211C80.2487 30.707 79.8451 31 79.207 31H78.0547C77.2995 31 77.0065 30.694 77.1758 30.082L82.0586 11.4883C82.1888 10.9544 82.5599 10.6875 83.1719 10.6875H84.4023C84.7539 10.6875 84.9883 10.7461 85.1055 10.8633C85.2227 10.9805 85.2422 11.2018 85.1641 11.5273L84.0117 16.0391ZM95.4375 4.59375H95.8086C96.2513 4.59375 96.6615 4.79557 97.0391 5.19922C97.4167 5.60286 97.6055 6.0651 97.6055 6.58594C97.6055 7.10677 97.4102 7.55599 97.0195 7.93359C96.6289 8.29818 96.1406 8.48047 95.5547 8.48047H95.2422C94.7865 8.48047 94.3763 8.29167 94.0117 7.91406C93.6602 7.52344 93.4844 7.06771 93.4844 6.54688C93.4844 6.02604 93.6667 5.57031 94.0312 5.17969C94.4089 4.78906 94.8776 4.59375 95.4375 4.59375ZM96.1602 11.5273L91.3164 30.1211C91.1602 30.707 90.763 31 90.125 31H88.9531C88.2109 31 87.918 30.694 88.0742 30.082L92.957 11.4883C93.0872 10.9544 93.4583 10.6875 94.0703 10.6875H95.3984C95.75 10.6875 95.9844 10.7461 96.1016 10.8633C96.2188 10.9805 96.2383 11.2018 96.1602 11.5273ZM102.078 27.2305C104.513 23.207 106.57 17.888 108.25 11.2734C108.38 10.7135 108.751 10.4596 109.363 10.5117L110.477 10.6094C111.206 10.7396 111.486 11.0716 111.316 11.6055C109.22 18.7539 106.798 24.457 104.051 28.7148C103.035 30.2643 102.163 31.026 101.434 31L100.32 30.9219C99.5 30.8698 99.1289 30.2188 99.207 28.9688C99.5195 24.0078 99.4805 18.4023 99.0898 12.1523C99.0378 11.1758 99.3568 10.6875 100.047 10.6875H101.16C101.772 10.6875 102.091 10.9935 102.117 11.6055C102.469 17.9987 102.456 23.207 102.078 27.2305ZM113.719 25.4727C113.354 27.4258 113.719 28.5065 114.812 28.7148C115.789 28.3503 117 27.3542 118.445 25.7266C118.693 25.5052 118.96 25.4792 119.246 25.6484L120.008 26.1172C120.359 26.3906 120.477 26.6836 120.359 26.9961C119.852 27.9596 118.914 28.9818 117.547 30.0625C116.18 31.1432 115.079 31.6055 114.246 31.4492C112.358 30.9674 111.251 29.9779 110.926 28.4805C110.548 26.4753 110.88 23.7214 111.922 20.2188C112.964 16.7161 114.415 14.0729 116.277 12.2891C116.928 11.6901 117.736 11.2474 118.699 10.9609C119.676 10.6615 120.704 10.7396 121.785 11.1953C122.866 11.651 123.4 12.9531 123.387 15.1016C123.374 17.25 122.43 19.2812 120.555 21.1953C118.693 23.0964 116.414 24.5221 113.719 25.4727ZM114.207 22.875C115.457 22.3411 116.525 21.7161 117.41 21C118.309 20.2839 119.044 19.4115 119.617 18.3828C120.203 17.3542 120.496 16.2995 120.496 15.2188C120.496 14.138 120.184 13.5977 119.559 13.5977C118.335 13.5977 117.26 14.6003 116.336 16.6055C115.424 18.5977 114.715 20.6875 114.207 22.875ZM129.949 16.0391C130.796 14.6589 131.577 13.513 132.293 12.6016C133.022 11.6901 133.549 11.1237 133.875 10.9023C134.214 10.668 134.799 10.5508 135.633 10.5508H136.023C136.805 10.5508 137.072 10.8503 136.824 11.4492C136.694 11.7617 136.368 12.1523 135.848 12.6211C135.327 13.0898 134.617 13.8906 133.719 15.0234C132.833 16.1562 132.391 16.8919 132.391 17.2305C132.391 17.9336 132.723 18.5911 133.387 19.2031C133.543 19.3333 133.589 19.4766 133.523 19.6328C133.458 19.776 133.322 19.8737 133.113 19.9258L131.59 20.1992C131.16 20.2773 130.828 20.2318 130.594 20.0625C130.372 19.8932 129.982 19.2878 129.422 18.2461L126.355 30.1211C126.186 30.707 125.783 31 125.145 31H123.992C123.237 31 122.944 30.694 123.113 30.082L127.996 11.4883C128.126 10.9544 128.497 10.6875 129.109 10.6875H130.34C130.691 10.6875 130.926 10.7461 131.043 10.8633C131.16 10.9805 131.18 11.2018 131.102 11.5273L129.949 16.0391Z" fill="white"/>
</svg>
